<svg id="visual" viewBox="0 0 900 600" width="900" height="600" xmlns="http://www.w3.org/2000/svg" xmlns:xlink="http://www.w3.org/1999/xlink" version="1.1"><rect x="0" y="0" width="900" height="600" fill="#001220"></rect><defs><linearGradient id="grad1_0" x1="33.3%" y1="0%" x2="100%" y2="100%"><stop offset="20%" stop-color="#101836" stop-opacity="1"></stop><stop offset="80%" stop-color="#101836" stop-opacity="1"></stop></linearGradient></defs><defs><linearGradient id="grad1_1" x1="33.3%" y1="0%" x2="100%" y2="100%"><stop offset="20%" stop-color="#101836" stop-opacity="1"></stop><stop offset="80%" stop-color="#0b1833" stop-opacity="1"></stop></linearGradient></defs><defs><linearGradient id="grad1_2" x1="33.3%" y1="0%" x2="100%" y2="100%"><stop offset="20%" stop-color="#07172f" stop-opacity="1"></stop><stop offset="80%" stop-color="#0b1833" stop-opacity="1"></stop></linearGradient></defs><defs><linearGradient id="grad1_3" x1="33.3%" y1="0%" x2="100%" y2="100%"><stop offset="20%" stop-color="#07172f" stop-opacity="1"></stop><stop offset="80%" stop-color="#05162c" stop-opacity="1"></stop></linearGradient></defs><defs><linearGradient id="grad1_4" x1="33.3%" y1="0%" x2="100%" y2="100%"><stop offset="20%" stop-color="#031528" stop-opacity="1"></stop><stop offset="80%" stop-color="#05162c" stop-opacity="1"></stop></linearGradient></defs><defs><linearGradient id="grad1_5" x1="33.3%" y1="0%" x2="100%" y2="100%"><stop offset="20%" stop-color="#031528" stop-opacity="1"></stop><stop offset="80%" stop-color="#011324" stop-opacity="1"></stop></linearGradient></defs><defs><linearGradient id="grad1_6" x1="33.3%" y1="0%" x2="100%" y2="100%"><stop offset="20%" stop-color="#001220" stop-opacity="1"></stop><stop offset="80%" stop-color="#011324" stop-opacity="1"></stop></linearGradient></defs><defs><linearGradient id="grad2_0" x1="0%" y1="0%" x2="66.7%" y2="100%"><stop offset="20%" stop-color="#101836" stop-opacity="1"></stop><stop offset="80%" stop-color="#101836" stop-opacity="1"></stop></linearGradient></defs><defs><linearGradient id="grad2_1" x1="0%" y1="0%" x2="66.7%" y2="100%"><stop offset="20%" stop-color="#0b1833" stop-opacity="1"></stop><stop offset="80%" stop-color="#101836" stop-opacity="1"></stop></linearGradient></defs><defs><linearGradient id="grad2_2" x1="0%" y1="0%" x2="66.7%" y2="100%"><stop offset="20%" stop-color="#0b1833" stop-opacity="1"></stop><stop offset="80%" stop-color="#07172f" stop-opacity="1"></stop></linearGradient></defs><defs><linearGradient id="grad2_3" x1="0%" y1="0%" x2="66.7%" y2="100%"><stop offset="20%" stop-color="#05162c" stop-opacity="1"></stop><stop offset="80%" stop-color="#07172f" stop-opacity="1"></stop></linearGradient></defs><defs><linearGradient id="grad2_4" x1="0%" y1="0%" x2="66.7%" y2="100%"><stop offset="20%" stop-color="#05162c" stop-opacity="1"></stop><stop offset="80%" stop-color="#031528" stop-opacity="1"></stop></linearGradient></defs><defs><linearGradient id="grad2_5" x1="0%" y1="0%" x2="66.7%" y2="100%"><stop offset="20%" stop-color="#011324" stop-opacity="1"></stop><stop offset="80%" stop-color="#031528" stop-opacity="1"></stop></linearGradient></defs><defs><linearGradient id="grad2_6" x1="0%" y1="0%" x2="66.7%" y2="100%"><stop offset="20%" stop-color="#011324" stop-opacity="1"></stop><stop offset="80%" stop-color="#001220" stop-opacity="1"></stop></linearGradient></defs><g transform="translate(900, 0)"><path d="M0 459.7C-53.3 465.1 -106.6 470.4 -142.1 437.2C-177.5 404 -195 332.2 -205.7 283.2C-216.4 234.1 -220.2 207.7 -263.7 191.6C-307.3 175.6 -390.6 169.9 -429.9 139.7C-469.2 109.5 -464.4 54.7 -459.7 0L0 0Z" fill="#011322"></path><path d="M0 394C-45.7 398.6 -91.4 403.2 -121.8 374.7C-152.1 346.3 -167.2 284.8 -176.3 242.7C-185.5 200.6 -188.7 178 -226.1 164.2C-263.4 150.5 -334.8 145.6 -368.5 119.7C-402.1 93.8 -398.1 46.9 -394 0L0 0Z" fill="#021426"></path><path d="M0 328.4C-38.1 332.2 -76.2 336 -101.5 312.3C-126.8 288.6 -139.3 237.3 -146.9 202.3C-154.6 167.2 -157.3 148.3 -188.4 136.9C-219.5 125.4 -279 121.3 -307.1 99.8C-335.1 78.2 -331.7 39.1 -328.4 0L0 0Z" fill="#04152a"></path><path d="M0 262.7C-30.5 265.7 -60.9 268.8 -81.2 249.8C-101.4 230.9 -111.5 189.9 -117.6 161.8C-123.7 133.8 -125.8 118.7 -150.7 109.5C-175.6 100.3 -223.2 97.1 -245.6 79.8C-268.1 62.6 -265.4 31.3 -262.7 0L0 0Z" fill="#06162d"></path><path d="M0 197C-22.8 199.3 -45.7 201.6 -60.9 187.4C-76.1 173.1 -83.6 142.4 -88.2 121.4C-92.7 100.3 -94.4 89 -113 82.1C-131.7 75.2 -167.4 72.8 -184.2 59.9C-201.1 46.9 -199 23.5 -197 0L0 0Z" fill="#091731"></path><path d="M0 131.3C-15.2 132.9 -30.5 134.4 -40.6 124.9C-50.7 115.4 -55.7 94.9 -58.8 80.9C-61.8 66.9 -62.9 59.3 -75.4 54.7C-87.8 50.2 -111.6 48.5 -122.8 39.9C-134 31.3 -132.7 15.6 -131.3 0L0 0Z" fill="#0d1834"></path><path d="M0 65.7C-7.6 66.4 -15.2 67.2 -20.3 62.5C-25.4 57.7 -27.9 47.5 -29.4 40.5C-30.9 33.4 -31.5 29.7 -37.7 27.4C-43.9 25.1 -55.8 24.3 -61.4 20C-67 15.6 -66.3 7.8 -65.7 0L0 0Z" fill="#101836"></path></g><g transform="translate(0, 600)"><path d="M0 -459.7C33.8 -406.6 67.7 -353.5 107.2 -330C146.8 -306.5 192 -312.5 210.4 -289.6C228.8 -266.7 220.4 -214.8 262.1 -190.4C303.9 -166.1 395.9 -169.2 437.2 -142.1C478.5 -114.9 469.1 -57.5 459.7 0L0 0Z" fill="#011322"></path><path d="M0 -394C29 -348.5 58 -303 91.9 -282.9C125.8 -262.7 164.6 -267.9 180.4 -248.3C196.1 -228.6 188.9 -184.1 224.7 -163.2C260.5 -142.3 339.3 -145 374.7 -121.8C410.2 -98.5 402.1 -49.2 394 0L0 0Z" fill="#021426"></path><path d="M0 -328.4C24.2 -290.4 48.3 -252.5 76.6 -235.7C104.8 -218.9 137.2 -223.2 150.3 -206.9C163.4 -190.5 157.4 -153.4 187.2 -136C217.1 -118.6 282.8 -120.9 312.3 -101.5C341.8 -82.1 335.1 -41 328.4 0L0 0Z" fill="#04152a"></path><path d="M0 -262.7C19.3 -232.4 38.7 -202 61.3 -188.6C83.9 -175.1 109.7 -178.6 120.2 -165.5C130.8 -152.4 125.9 -122.8 149.8 -108.8C173.7 -94.9 226.2 -96.7 249.8 -81.2C273.4 -65.7 268.1 -32.8 262.7 0L0 0Z" fill="#06162d"></path><path d="M0 -197C14.5 -174.3 29 -151.5 46 -141.4C62.9 -131.4 82.3 -133.9 90.2 -124.1C98.1 -114.3 94.4 -92.1 112.3 -81.6C130.2 -71.2 169.7 -72.5 187.4 -60.9C205.1 -49.2 201 -24.6 197 0L0 0Z" fill="#091731"></path><path d="M0 -131.3C9.7 -116.2 19.3 -101 30.6 -94.3C41.9 -87.6 54.9 -89.3 60.1 -82.8C65.4 -76.2 63 -61.4 74.9 -54.4C86.8 -47.4 113.1 -48.3 124.9 -40.6C136.7 -32.8 134 -16.4 131.3 0L0 0Z" fill="#0d1834"></path><path d="M0 -65.7C4.8 -58.1 9.7 -50.5 15.3 -47.1C21 -43.8 27.4 -44.6 30.1 -41.4C32.7 -38.1 31.5 -30.7 37.4 -27.2C43.4 -23.7 56.6 -24.2 62.5 -20.3C68.4 -16.4 67 -8.2 65.7 0L0 0Z" fill="#101836"></path></g></svg>