<svg id="visual" viewBox="0 0 900 600" width="900" height="600" xmlns="http://www.w3.org/2000/svg" xmlns:xlink="http://www.w3.org/1999/xlink" version="1.1"><rect x="0" y="0" width="900" height="600" fill="#ffffff"></rect><defs><linearGradient id="grad1_0" x1="33.3%" y1="0%" x2="100%" y2="100%"><stop offset="20%" stop-color="#bedfff" stop-opacity="1"></stop><stop offset="80%" stop-color="#bedfff" stop-opacity="1"></stop></linearGradient></defs><defs><linearGradient id="grad1_1" x1="33.3%" y1="0%" x2="100%" y2="100%"><stop offset="20%" stop-color="#bedfff" stop-opacity="1"></stop><stop offset="80%" stop-color="#c9e4ff" stop-opacity="1"></stop></linearGradient></defs><defs><linearGradient id="grad1_2" x1="33.3%" y1="0%" x2="100%" y2="100%"><stop offset="20%" stop-color="#d5eaff" stop-opacity="1"></stop><stop offset="80%" stop-color="#c9e4ff" stop-opacity="1"></stop></linearGradient></defs><defs><linearGradient id="grad1_3" x1="33.3%" y1="0%" x2="100%" y2="100%"><stop offset="20%" stop-color="#d5eaff" stop-opacity="1"></stop><stop offset="80%" stop-color="#dfefff" stop-opacity="1"></stop></linearGradient></defs><defs><linearGradient id="grad1_4" x1="33.3%" y1="0%" x2="100%" y2="100%"><stop offset="20%" stop-color="#eaf4ff" stop-opacity="1"></stop><stop offset="80%" stop-color="#dfefff" stop-opacity="1"></stop></linearGradient></defs><defs><linearGradient id="grad1_5" x1="33.3%" y1="0%" x2="100%" y2="100%"><stop offset="20%" stop-color="#eaf4ff" stop-opacity="1"></stop><stop offset="80%" stop-color="#f5faff" stop-opacity="1"></stop></linearGradient></defs><defs><linearGradient id="grad1_6" x1="33.3%" y1="0%" x2="100%" y2="100%"><stop offset="20%" stop-color="#ffffff" stop-opacity="1"></stop><stop offset="80%" stop-color="#f5faff" stop-opacity="1"></stop></linearGradient></defs><defs><linearGradient id="grad2_0" x1="0%" y1="0%" x2="66.7%" y2="100%"><stop offset="20%" stop-color="#bedfff" stop-opacity="1"></stop><stop offset="80%" stop-color="#bedfff" stop-opacity="1"></stop></linearGradient></defs><defs><linearGradient id="grad2_1" x1="0%" y1="0%" x2="66.7%" y2="100%"><stop offset="20%" stop-color="#c9e4ff" stop-opacity="1"></stop><stop offset="80%" stop-color="#bedfff" stop-opacity="1"></stop></linearGradient></defs><defs><linearGradient id="grad2_2" x1="0%" y1="0%" x2="66.7%" y2="100%"><stop offset="20%" stop-color="#c9e4ff" stop-opacity="1"></stop><stop offset="80%" stop-color="#d5eaff" stop-opacity="1"></stop></linearGradient></defs><defs><linearGradient id="grad2_3" x1="0%" y1="0%" x2="66.7%" y2="100%"><stop offset="20%" stop-color="#dfefff" stop-opacity="1"></stop><stop offset="80%" stop-color="#d5eaff" stop-opacity="1"></stop></linearGradient></defs><defs><linearGradient id="grad2_4" x1="0%" y1="0%" x2="66.7%" y2="100%"><stop offset="20%" stop-color="#dfefff" stop-opacity="1"></stop><stop offset="80%" stop-color="#eaf4ff" stop-opacity="1"></stop></linearGradient></defs><defs><linearGradient id="grad2_5" x1="0%" y1="0%" x2="66.7%" y2="100%"><stop offset="20%" stop-color="#f5faff" stop-opacity="1"></stop><stop offset="80%" stop-color="#eaf4ff" stop-opacity="1"></stop></linearGradient></defs><defs><linearGradient id="grad2_6" x1="0%" y1="0%" x2="66.7%" y2="100%"><stop offset="20%" stop-color="#f5faff" stop-opacity="1"></stop><stop offset="80%" stop-color="#ffffff" stop-opacity="1"></stop></linearGradient></defs><g transform="translate(900, 0)"><path d="M0 459.7C-18.6 377.1 -37.1 294.5 -79.5 296.5C-121.8 298.6 -188 385.2 -229.9 398.1C-271.7 411.1 -289.4 350.4 -304.8 304.8C-320.1 259.2 -333.2 228.7 -341.2 197C-349.2 165.3 -352 132.4 -370.9 99.4C-389.8 66.4 -424.8 33.2 -459.7 0L0 0Z" fill="#fafcff"></path><path d="M0 394C-15.9 323.2 -31.8 252.5 -68.1 254.2C-104.4 255.9 -161.1 330.1 -197 341.2C-232.9 352.3 -248 300.3 -261.2 261.2C-274.4 222.1 -285.6 196 -292.5 168.9C-299.3 141.7 -301.7 113.5 -317.9 85.2C-334.1 56.9 -364.1 28.4 -394 0L0 0Z" fill="#eff7ff"></path><path d="M0 328.4C-13.3 269.4 -26.5 210.4 -56.8 211.8C-87 213.3 -134.3 275.1 -164.2 284.4C-194.1 293.6 -206.7 250.3 -217.7 217.7C-228.7 185.1 -238 163.3 -243.7 140.7C-249.4 118.1 -251.4 94.6 -264.9 71C-278.4 47.4 -303.4 23.7 -328.4 0L0 0Z" fill="#e5f2ff"></path><path d="M0 262.7C-10.6 215.5 -21.2 168.3 -45.4 169.5C-69.6 170.6 -107.4 220.1 -131.3 227.5C-155.3 234.9 -165.4 200.2 -174.2 174.2C-182.9 148.1 -190.4 130.7 -195 112.6C-199.5 94.5 -201.2 75.7 -212 56.8C-222.7 37.9 -242.7 19 -262.7 0L0 0Z" fill="#daecff"></path><path d="M0 197C-8 161.6 -15.9 126.2 -34.1 127.1C-52.2 128 -80.6 165.1 -98.5 170.6C-116.5 176.2 -124 150.2 -130.6 130.6C-137.2 111.1 -142.8 98 -146.2 84.4C-149.7 70.8 -150.9 56.8 -159 42.6C-167.1 28.4 -182 14.2 -197 0L0 0Z" fill="#cfe7ff"></path><path d="M0 131.3C-5.3 107.7 -10.6 84.2 -22.7 84.7C-34.8 85.3 -53.7 110 -65.7 113.7C-77.6 117.4 -82.7 100.1 -87.1 87.1C-91.5 74 -95.2 65.3 -97.5 56.3C-99.8 47.2 -100.6 37.8 -106 28.4C-111.4 19 -121.4 9.5 -131.3 0L0 0Z" fill="#c4e2ff"></path><path d="M0 65.7C-2.7 53.9 -5.3 42.1 -11.4 42.4C-17.4 42.7 -26.9 55 -32.8 56.9C-38.8 58.7 -41.3 50.1 -43.5 43.5C-45.7 37 -47.6 32.7 -48.7 28.1C-49.9 23.6 -50.3 18.9 -53 14.2C-55.7 9.5 -60.7 4.7 -65.7 0L0 0Z" fill="#bedfff"></path></g><g transform="translate(0, 600)"><path d="M0 -459.7C46.5 -456.8 93.1 -453.8 107.9 -402.8C122.8 -351.8 105.9 -252.7 138 -239C170.1 -225.4 251 -297.1 310.4 -310.4C369.8 -323.7 407.6 -278.7 398.1 -229.9C388.6 -181 331.8 -128.5 334.2 -89.6C336.6 -50.6 398.1 -25.3 459.7 0L0 0Z" fill="#fafcff"></path><path d="M0 -394C39.9 -391.5 79.8 -389 92.5 -345.2C105.2 -301.5 90.8 -216.6 118.3 -204.9C145.8 -193.2 215.2 -254.6 266.1 -266.1C317 -277.5 349.4 -238.9 341.2 -197C333.1 -155.2 284.4 -110.1 286.5 -76.8C288.5 -43.4 341.3 -21.7 394 0L0 0Z" fill="#eff7ff"></path><path d="M0 -328.4C33.2 -326.3 66.5 -324.1 77.1 -287.7C87.7 -251.3 75.7 -180.5 98.6 -170.7C121.5 -161 179.3 -212.2 221.7 -221.7C264.1 -231.2 291.2 -199.1 284.4 -164.2C277.6 -129.3 237 -91.8 238.7 -64C240.4 -36.2 284.4 -18.1 328.4 0L0 0Z" fill="#e5f2ff"></path><path d="M0 -262.7C26.6 -261 53.2 -259.3 61.7 -230.2C70.2 -201 60.5 -144.4 78.9 -136.6C97.2 -128.8 143.4 -169.8 177.4 -177.4C211.3 -185 232.9 -159.2 227.5 -131.3C222.1 -103.4 189.6 -73.4 191 -51.2C192.3 -28.9 227.5 -14.5 262.7 0L0 0Z" fill="#daecff"></path><path d="M0 -197C19.9 -195.8 39.9 -194.5 46.3 -172.6C52.6 -150.8 45.4 -108.3 59.1 -102.4C72.9 -96.6 107.6 -127.3 133 -133C158.5 -138.7 174.7 -119.4 170.6 -98.5C166.6 -77.6 142.2 -55.1 143.2 -38.4C144.3 -21.7 170.6 -10.8 197 0L0 0Z" fill="#cfe7ff"></path><path d="M0 -131.3C13.3 -130.5 26.6 -129.7 30.8 -115.1C35.1 -100.5 30.3 -72.2 39.4 -68.3C48.6 -64.4 71.7 -84.9 88.7 -88.7C105.7 -92.5 116.5 -79.6 113.7 -65.7C111 -51.7 94.8 -36.7 95.5 -25.6C96.2 -14.5 113.8 -7.2 131.3 0L0 0Z" fill="#c4e2ff"></path><path d="M0 -65.7C6.6 -65.3 13.3 -64.8 15.4 -57.5C17.5 -50.3 15.1 -36.1 19.7 -34.1C24.3 -32.2 35.9 -42.4 44.3 -44.3C52.8 -46.2 58.2 -39.8 56.9 -32.8C55.5 -25.9 47.4 -18.4 47.7 -12.8C48.1 -7.2 56.9 -3.6 65.7 0L0 0Z" fill="#bedfff"></path></g></svg>