<svg id="visual" viewBox="0 0 900 600" width="900" height="600" xmlns="http://www.w3.org/2000/svg" xmlns:xlink="http://www.w3.org/1999/xlink" version="1.1"><rect x="0" y="0" width="900" height="600" fill="#001122"></rect><defs><linearGradient id="grad1_0" x1="33.3%" y1="0%" x2="100%" y2="100%"><stop offset="20%" stop-color="#195087" stop-opacity="1"></stop><stop offset="80%" stop-color="#195087" stop-opacity="1"></stop></linearGradient></defs><defs><linearGradient id="grad1_1" x1="33.3%" y1="0%" x2="100%" y2="100%"><stop offset="20%" stop-color="#195087" stop-opacity="1"></stop><stop offset="80%" stop-color="#114371" stop-opacity="1"></stop></linearGradient></defs><defs><linearGradient id="grad1_2" x1="33.3%" y1="0%" x2="100%" y2="100%"><stop offset="20%" stop-color="#0b365c" stop-opacity="1"></stop><stop offset="80%" stop-color="#114371" stop-opacity="1"></stop></linearGradient></defs><defs><linearGradient id="grad1_3" x1="33.3%" y1="0%" x2="100%" y2="100%"><stop offset="20%" stop-color="#0b365c" stop-opacity="1"></stop><stop offset="80%" stop-color="#072948" stop-opacity="1"></stop></linearGradient></defs><defs><linearGradient id="grad1_4" x1="33.3%" y1="0%" x2="100%" y2="100%"><stop offset="20%" stop-color="#041d34" stop-opacity="1"></stop><stop offset="80%" stop-color="#072948" stop-opacity="1"></stop></linearGradient></defs><defs><linearGradient id="grad1_5" x1="33.3%" y1="0%" x2="100%" y2="100%"><stop offset="20%" stop-color="#041d34" stop-opacity="1"></stop><stop offset="80%" stop-color="#001122" stop-opacity="1"></stop></linearGradient></defs><defs><linearGradient id="grad2_0" x1="0%" y1="0%" x2="66.7%" y2="100%"><stop offset="20%" stop-color="#195087" stop-opacity="1"></stop><stop offset="80%" stop-color="#195087" stop-opacity="1"></stop></linearGradient></defs><defs><linearGradient id="grad2_1" x1="0%" y1="0%" x2="66.7%" y2="100%"><stop offset="20%" stop-color="#114371" stop-opacity="1"></stop><stop offset="80%" stop-color="#195087" stop-opacity="1"></stop></linearGradient></defs><defs><linearGradient id="grad2_2" x1="0%" y1="0%" x2="66.7%" y2="100%"><stop offset="20%" stop-color="#114371" stop-opacity="1"></stop><stop offset="80%" stop-color="#0b365c" stop-opacity="1"></stop></linearGradient></defs><defs><linearGradient id="grad2_3" x1="0%" y1="0%" x2="66.7%" y2="100%"><stop offset="20%" stop-color="#072948" stop-opacity="1"></stop><stop offset="80%" stop-color="#0b365c" stop-opacity="1"></stop></linearGradient></defs><defs><linearGradient id="grad2_4" x1="0%" y1="0%" x2="66.7%" y2="100%"><stop offset="20%" stop-color="#072948" stop-opacity="1"></stop><stop offset="80%" stop-color="#041d34" stop-opacity="1"></stop></linearGradient></defs><defs><linearGradient id="grad2_5" x1="0%" y1="0%" x2="66.7%" y2="100%"><stop offset="20%" stop-color="#001122" stop-opacity="1"></stop><stop offset="80%" stop-color="#041d34" stop-opacity="1"></stop></linearGradient></defs><g transform="translate(900, 0)"><path d="M0 459.7C-26.1 399.3 -52.2 338.9 -88.8 331.3C-125.3 323.7 -172.3 368.8 -218.5 378.5C-264.7 388.1 -310.1 362.2 -321 321C-331.9 279.8 -308.4 223.3 -329.1 190C-349.8 156.7 -414.9 146.8 -444 119C-473.2 91.2 -466.5 45.6 -459.7 0L0 0Z" fill="#03182b"></path><path d="M0 383.1C-21.8 332.8 -43.5 282.4 -74 276.1C-104.4 269.7 -143.6 307.3 -182.1 315.4C-220.6 323.4 -258.4 301.9 -267.5 267.5C-276.6 233.2 -257 186.1 -274.2 158.3C-291.5 130.6 -345.7 122.3 -370 99.2C-394.3 76 -388.7 38 -383.1 0L0 0Z" fill="#05233e"></path><path d="M0 306.5C-17.4 266.2 -34.8 226 -59.2 220.9C-83.5 215.8 -114.9 245.9 -145.7 252.3C-176.5 258.7 -206.7 241.5 -214 214C-221.3 186.5 -205.6 148.8 -219.4 126.7C-233.2 104.5 -276.6 97.8 -296 79.3C-315.5 60.8 -311 30.4 -306.5 0L0 0Z" fill="#093052"></path><path d="M0 229.9C-13.1 199.7 -26.1 169.5 -44.4 165.7C-62.7 161.8 -86.2 184.4 -109.2 189.2C-132.3 194 -155.1 181.1 -160.5 160.5C-166 139.9 -154.2 111.6 -164.5 95C-174.9 78.4 -207.4 73.4 -222 59.5C-236.6 45.6 -233.2 22.8 -229.9 0L0 0Z" fill="#0e3c67"></path><path d="M0 153.2C-8.7 133.1 -17.4 113 -29.6 110.4C-41.8 107.9 -57.4 122.9 -72.8 126.2C-88.2 129.4 -103.4 120.7 -107 107C-110.6 93.3 -102.8 74.4 -109.7 63.3C-116.6 52.2 -138.3 48.9 -148 39.7C-157.7 30.4 -155.5 15.2 -153.2 0L0 0Z" fill="#15497c"></path><path d="M0 76.6C-4.4 66.6 -8.7 56.5 -14.8 55.2C-20.9 53.9 -28.7 61.5 -36.4 63.1C-44.1 64.7 -51.7 60.4 -53.5 53.5C-55.3 46.6 -51.4 37.2 -54.8 31.7C-58.3 26.1 -69.1 24.5 -74 19.8C-78.9 15.2 -77.7 7.6 -76.6 0L0 0Z" fill="#195087"></path></g><g transform="translate(0, 600)"><path d="M0 -459.7C42.6 -460.5 85.3 -461.2 114.9 -428.9C144.6 -396.5 161.3 -331.2 162 -280.6C162.7 -230 147.4 -194.3 197.3 -197.3C247.1 -200.3 362.1 -242.1 398.1 -229.9C434.1 -217.6 391.2 -151.4 388.3 -104C385.4 -56.7 422.6 -28.4 459.7 0L0 0Z" fill="#03182b"></path><path d="M0 -383.1C35.5 -383.7 71 -384.3 95.8 -357.4C120.5 -330.5 134.4 -276 135 -233.8C135.6 -191.7 122.9 -161.9 164.4 -164.4C205.9 -166.9 301.8 -201.7 331.8 -191.5C361.8 -181.3 326 -126.1 323.6 -86.7C321.2 -47.3 352.1 -23.6 383.1 0L0 0Z" fill="#05233e"></path><path d="M0 -306.5C28.4 -307 56.8 -307.5 76.6 -285.9C96.4 -264.4 107.5 -220.8 108 -187.1C108.5 -153.3 98.3 -129.5 131.5 -131.5C164.8 -133.5 241.4 -161.4 265.4 -153.2C289.4 -145.1 260.8 -100.9 258.9 -69.4C256.9 -37.8 281.7 -18.9 306.5 0L0 0Z" fill="#093052"></path><path d="M0 -229.9C21.3 -230.2 42.6 -230.6 57.5 -214.4C72.3 -198.3 80.6 -165.6 81 -140.3C81.4 -115 73.7 -97.1 98.6 -98.6C123.6 -100.1 181.1 -121 199.1 -114.9C217.1 -108.8 195.6 -75.7 194.2 -52C192.7 -28.4 211.3 -14.2 229.9 0L0 0Z" fill="#0e3c67"></path><path d="M0 -153.2C14.2 -153.5 28.4 -153.7 38.3 -143C48.2 -132.2 53.8 -110.4 54 -93.5C54.2 -76.7 49.1 -64.8 65.8 -65.8C82.4 -66.8 120.7 -80.7 132.7 -76.6C144.7 -72.5 130.4 -50.5 129.4 -34.7C128.5 -18.9 140.9 -9.5 153.2 0L0 0Z" fill="#15497c"></path><path d="M0 -76.6C7.1 -76.7 14.2 -76.9 19.2 -71.5C24.1 -66.1 26.9 -55.2 27 -46.8C27.1 -38.3 24.6 -32.4 32.9 -32.9C41.2 -33.4 60.4 -40.3 66.4 -38.3C72.4 -36.3 65.2 -25.2 64.7 -17.3C64.2 -9.5 70.4 -4.7 76.6 0L0 0Z" fill="#195087"></path></g></svg>