<svg id="visual" viewBox="0 0 900 600" width="900" height="600" xmlns="http://www.w3.org/2000/svg" xmlns:xlink="http://www.w3.org/1999/xlink" version="1.1"><rect x="0" y="0" width="900" height="600" fill="#001220"></rect><defs><linearGradient id="grad1_0" x1="33.3%" y1="0%" x2="100%" y2="100%"><stop offset="20%" stop-color="#001220" stop-opacity="1"></stop><stop offset="80%" stop-color="#001220" stop-opacity="1"></stop></linearGradient></defs><defs><linearGradient id="grad2_0" x1="0%" y1="0%" x2="66.7%" y2="100%"><stop offset="20%" stop-color="#001220" stop-opacity="1"></stop><stop offset="80%" stop-color="#001220" stop-opacity="1"></stop></linearGradient></defs><g transform="translate(900, 0)"><path d="M0 378.6C-52.6 376.2 -105.2 373.8 -144.9 349.8C-184.5 325.7 -211.2 280.1 -243.2 243.2C-275.3 206.4 -312.8 178.4 -336.3 139.3C-359.8 100.2 -369.2 50.1 -378.6 0L0 0Z" fill="#FBAE3C"></path></g><g transform="translate(0, 600)"><path d="M0 -378.6C47.5 -359.6 95 -340.6 130.1 -314.1C165.2 -287.6 187.8 -253.5 227 -227C266.1 -200.4 321.7 -181.5 349.8 -144.9C377.8 -108.3 378.2 -54.2 378.6 0L0 0Z" fill="#FBAE3C"></path></g></svg>