<?xml version="1.0" encoding="UTF-8"?>
<svg version="1.1" xmlns="http://www.w3.org/2000/svg" width="2000" height="573">
<path d="M0 0 C6.33781476 3.1755075 12.73407146 6.22455753 19.13137817 9.27815247 C28.33512376 13.67940399 37.45214426 18.23113484 46.53762817 22.87190247 C49.68767369 24.4735242 52.83822184 26.07415387 55.98883057 27.67466736 C58.07558749 28.73943521 60.1593486 29.81009585 62.23999023 30.88676453 C65.17460755 32.40517129 68.11859436 33.90381918 71.06497192 35.39924622 C72.38972534 36.09497742 72.38972534 36.09497742 73.74124146 36.80476379 C78.52387678 39.2102014 78.52387678 39.2102014 83.76321411 39.82063293 C87.63264808 38.52673857 91.43012499 37.12988392 95.21340942 35.60237122 C96.8936232 34.93994529 98.57396618 34.27784701 100.25442505 33.61604309 C102.86426568 32.58061587 105.47259251 31.54170842 108.07839966 30.49617004 C140.20270275 17.64214466 172.37367058 13.92867474 204.95266724 27.80256653 C235.69514645 41.34645597 260.59126643 60.51026306 274.00637817 92.21565247 C278.16856162 103.23387697 281.24836979 115.03468035 281.69387817 126.84065247 C281.77122192 128.34885559 281.77122192 128.34885559 281.85012817 129.88752747 C282.52224915 154.19590271 274.16078724 174.55958595 263.60305786 195.96174622 C261.51612052 200.19503742 259.45195335 204.43929098 257.38919067 208.68440247 C254.19694813 215.25228619 250.99880333 221.81724771 247.79544067 228.37971497 C244.75204757 234.61491784 241.71494995 240.85311731 238.68600464 247.09535217 C236.9106011 250.75365927 235.13290797 254.41085156 233.35501099 258.06794739 C232.51380416 259.79970289 231.67359379 261.53194287 230.83450317 263.26472473 C226.6361101 271.93328185 222.38274831 280.56808294 217.91653442 289.10237122 C217.56477142 289.78149567 217.21300842 290.46062012 216.85058594 291.1603241 C204.17159625 315.11874512 181.26218123 332.66661978 155.56887817 340.65315247 C149.63499201 342.29106335 143.71375776 343.40932931 137.61502075 344.21296692 C136.68925893 344.33669583 135.7634971 344.46042475 134.80968189 344.58790302 C119.20454917 346.61177243 103.53788821 348.15478147 87.88738608 349.77955794 C85.05446971 350.07383525 82.22165251 350.36904987 79.38886452 350.66456032 C69.46870929 351.6992909 59.54815215 352.73007157 49.62722778 353.75740051 C40.43546706 354.70934082 31.24470251 355.67051343 22.05433816 356.63583297 C14.10699136 357.47013991 6.1589553 358.29765283 -1.78963059 359.12007028 C-6.51254916 359.60886619 -11.23515037 360.10032775 -15.95705605 360.59882164 C-20.39455611 361.06707985 -24.83286514 361.52678234 -29.27189445 361.98030663 C-30.88570852 362.14658878 -32.49922881 362.31575593 -34.11238861 362.48826981 C-47.83528763 363.95282089 -61.98947965 365.08860709 -75.68112183 362.77815247 C-76.84647461 362.58515564 -76.84647461 362.58515564 -78.03536987 362.38825989 C-105.43621213 357.36050667 -129.90256281 341.06288276 -146.11862183 318.52815247 C-150.3241358 312.11360498 -153.74661456 305.42157439 -157.02926636 298.5091095 C-158.56719124 295.29505233 -160.13784441 292.09739644 -161.70846558 288.89924622 C-178.0594363 255.53724761 -190.41035435 223.28704245 -179.30612183 185.84065247 C-178.95549683 184.8287384 -178.60487183 183.81682434 -178.24362183 182.77424622 C-177.2211336 179.57471015 -176.70843001 176.46925251 -176.18112183 173.15315247 C-172.4377223 153.32582449 -161.09936319 134.66344284 -152.49958801 116.57702637 C-149.16548574 109.55848457 -145.88242502 102.51719183 -142.61862183 95.46565247 C-141.57308128 93.20782498 -140.52750839 90.95001246 -139.48190308 88.69221497 C-138.96450562 87.57492004 -138.44710815 86.45762512 -137.91403198 85.30647278 C-136.23048012 81.67760818 -134.54123861 78.05145159 -132.84909058 74.42658997 C-132.55770706 73.80239166 -132.26632355 73.17819336 -131.96611023 72.53507996 C-130.49638744 69.38752934 -129.02548688 66.24053301 -127.55343628 63.09407043 C-124.59387907 56.76473162 -121.65291579 50.42764029 -118.74362183 44.07502747 C-117.87547553 42.18505829 -117.00688871 40.29529222 -116.13815308 38.40559387 C-115.3357984 36.65538711 -114.53959022 34.90236659 -113.74362183 33.14924622 C-104.15869259 12.30701728 -91.52506021 -2.11374257 -70.13815308 -11.16325378 C-43.88186605 -20.3982237 -23.35802897 -11.70757535 0 0 Z M101.69387817 49.84065247 C104.72147076 52.26574338 107.79554702 53.99208158 111.2817688 55.68464661 C112.40393799 56.2327449 113.52610718 56.7808432 114.68228149 57.34555054 C115.2792836 57.63506655 115.87628571 57.92458256 116.49137878 58.22287178 C118.37968329 59.1401659 120.26426132 60.06471776 122.14785767 60.99163818 C127.50228703 63.62635976 132.8583821 66.25737773 138.22805786 68.86091614 C141.5207329 70.45806669 144.804927 72.07164393 148.08454895 73.6954174 C149.32208652 74.30443404 150.56249536 74.90765883 151.80601501 75.50436592 C169.88921135 84.19013313 181.5724154 96.41081363 189.69387817 114.84065247 C191.1219895 118.98667456 192.23769052 123.179435 193.30715942 127.43049622 C193.60704269 128.57804886 193.90692596 129.7256015 194.21589661 130.90792847 C195.15863583 134.52821421 196.08262754 138.15298093 197.00637817 141.77815247 C197.64385055 144.23484424 198.28251251 146.69122766 198.9223938 149.14729309 C200.08547768 153.62914089 201.2453 158.11174418 202.39041138 162.59822083 C202.61880203 163.49246262 202.84719269 164.38670441 203.08250427 165.30804443 C207.51090224 183.6526225 205.12121045 202.42602717 195.66262817 218.77815247 C187.2140812 231.92033665 176.39699842 241.32152869 161.69387817 246.84065247 C160.51438599 247.28344543 160.51438599 247.28344543 159.31106567 247.73518372 C153.33297701 249.73774477 147.34849038 250.49556531 141.08840942 251.11799622 C138.57488879 251.44242875 136.34702191 251.9509505 133.92459106 252.7212677 C120.86632204 256.83229283 107.40094061 257.12568357 93.82278442 257.89497757 C89.84099484 258.12389873 85.86028862 258.37041365 81.87942505 258.61482239 C75.30674162 259.01641596 68.73366066 259.41063257 62.16018486 259.79903507 C46.3169021 260.73568185 30.47634731 261.71466433 14.63583368 262.69676632 C1.19505295 263.52995372 -12.24609973 264.35712155 -25.68726236 265.18412179 C-29.92225881 265.44471997 -34.15723721 265.70560535 -38.39217758 265.96711349 C-47.40994478 266.52391667 -56.4278402 267.07845918 -65.44616181 267.62621856 C-69.25352329 267.85752402 -73.06079635 268.09008948 -76.86786842 268.32611465 C-80.41004019 268.54566735 -83.95242342 268.76142698 -87.49499857 268.97436869 C-89.38089094 269.08865192 -91.26654955 269.2067731 -93.15219402 269.3250761 C-115.77635999 270.67047289 -135.25832551 268.81890232 -153.30612183 253.84065247 C-155.74651679 251.59655984 -158.04716135 249.26535189 -160.30612183 246.84065247 C-161.30265565 245.83719827 -162.30164762 244.83615815 -163.30612183 243.84065247 C-162.73262446 249.43421579 -160.66923571 253.88680697 -158.29830933 258.90315247 C-157.69274704 260.20566956 -157.69274704 260.20566956 -157.07495117 261.53450012 C-155.78383761 264.30646445 -154.48242226 267.07345833 -153.18112183 269.84065247 C-152.32893006 271.66978651 -151.47736163 273.49921109 -150.62643433 275.32893372 C-148.21080254 280.51123967 -145.76925706 285.6807619 -143.30612183 290.84065247 C-142.96421814 291.55707916 -142.62231445 292.27350586 -142.27005005 293.01164246 C-131.41317461 315.62632364 -114.00768313 333.80568635 -90.08395386 342.66340637 C-63.73434532 351.46169739 -36.82153974 347.09655448 -9.7933073 344.3047235 C-4.91467055 343.80275317 -0.03491036 343.31192633 4.84469604 342.81948853 C13.02857271 341.99191353 21.21157741 341.15612737 29.39407349 340.3150177 C38.80951748 339.34724421 48.22610828 338.39135148 57.64343286 337.44206446 C66.76633337 336.52228011 75.8884815 335.59523776 85.01027679 334.66456032 C88.86446087 334.27137822 92.71886285 333.88044605 96.57346344 333.49136925 C101.12151068 333.03187793 105.66885084 332.56589765 110.21575165 332.09520149 C111.86934187 331.9249832 113.52314487 331.75681519 115.17718506 331.59102631 C146.15997318 328.48031557 173.20430466 321.47337113 194.44216919 296.68537903 C201.69324821 287.52463169 206.87575377 276.90415361 212.00637817 266.46565247 C212.59354614 265.28616028 213.18071411 264.10666809 213.78567505 262.89143372 C218.06731674 254.2716225 222.20978917 245.58637413 226.35211182 236.89898682 C229.69811425 229.89344809 233.09197326 222.91280049 236.51809692 215.94612122 C237.00083572 214.96397644 237.48357452 213.98183167 237.98094177 212.96992493 C239.94101982 208.98406743 241.90236433 204.99884582 243.86795044 201.01570129 C248.79112036 191.03411398 253.69118493 181.04833288 258.24465942 170.89143372 C258.72040657 169.83801033 258.72040657 169.83801033 259.20576477 168.76330566 C268.75152969 147.14816027 268.34117365 122.6822969 260.56106567 100.62971497 C248.49553131 69.54698074 224.29546246 54.00552506 195.08352661 40.87385559 C162.538435 26.80245922 132.59095169 37.41765721 101.69387817 49.84065247 Z " fill="#0071D3" transform="translate(250.30612182617188,99.15934753417969)"/>
<path d="M0 0 C17.82 0 35.64 0 54 0 C54 97.35 54 194.7 54 295 C38.49 295 22.98 295 7 295 C6.67 290.05 6.34 285.1 6 280 C4.68 281.155 3.36 282.31 2 283.5 C-16.84136676 298.4458943 -38.47032305 301.86121508 -62 300 C-85.08703315 297.05578172 -107.05833585 284.09322764 -121.3125 265.6875 C-129.23111938 255.03214744 -135.24716187 243.79376634 -139 231 C-139.3196875 229.92234375 -139.639375 228.8446875 -139.96875 227.734375 C-146.55825786 201.0102598 -141.88286539 172.92005616 -127.85644531 149.51513672 C-114.75882646 128.62021521 -94.75856183 113.54625283 -70.79516602 107.43798828 C-47.2475251 102.13793699 -24.65503352 106.33419867 -4 118 C-3.01 118.66 -2.02 119.32 -1 120 C-0.67 80.4 -0.34 40.8 0 0 Z M-78.0390625 167.77734375 C-87.22479018 178.18905501 -92.41601822 190.9067008 -92.1484375 204.84765625 C-91.25442773 217.81079795 -86.16340603 229.75880614 -77 239 C-63.61161472 250.43055641 -51.18782951 253.32185671 -34 252 C-22.06413789 249.66074013 -10.91738293 241.89448444 -4 232 C3.73408627 218.94681883 7.17491074 206.11320067 3.875 191 C-0.03972155 176.97224777 -8.72228934 165.81314698 -21.2421875 158.40234375 C-40.37377422 148.673959 -62.72131883 153.00056129 -78.0390625 167.77734375 Z " fill="#FFFFFF" transform="translate(1129,129)"/>
<path d="M0 0 C17.82 0 35.64 0 54 0 C54.33 39.6 54.66 79.2 55 120 C59.62 117.36 64.24 114.72 69 112 C88.89176423 103.78383651 112.61555921 102.76376 133 110 C134.60488281 110.56074219 134.60488281 110.56074219 136.2421875 111.1328125 C159.96943036 120.24938673 177.64190501 139.31392341 188.39453125 161.93359375 C198.407464 185.68027716 199.57759245 214.26718202 190.38671875 238.453125 C180.01300355 263.8409666 161.68228635 283.83335438 136.43359375 294.71484375 C115.33541151 302.61166054 90.63033343 303.21651969 69.7578125 294.234375 C61.60668402 290.48923651 54.77635755 285.92931285 48 280 C47.67 284.95 47.34 289.9 47 295 C31.49 295 15.98 295 0 295 C0 197.65 0 100.3 0 0 Z M67.16015625 164.03125 C56.65736597 173.60341329 49.7249622 184.92785004 48.78515625 199.28125 C48.40496506 213.27228577 52.01018003 225.47253383 61.1875 236.1875 C70.57828202 246.05866856 80.88550003 251.92455035 94.65258789 252.47045898 C106.97875405 252.62557766 117.27580377 249.83239805 127 242 C127.75023437 241.39800781 128.50046875 240.79601562 129.2734375 240.17578125 C138.29624698 232.0922062 144.59453488 219.9690081 145.2734375 207.84765625 C145.78496839 191.00241497 141.58661196 178.32977658 130 166 C126.84987115 163.25447485 123.63708391 161.04806667 120 159 C119.30648438 158.59265625 118.61296875 158.1853125 117.8984375 157.765625 C101.56278491 149.32247872 81.0179985 152.49526845 67.16015625 164.03125 Z " fill="#FFFFFF" transform="translate(1781,129)"/>
<path d="M0 0 C2.31111493 1.83587158 4.55216602 3.75951246 6.7734375 5.703125 C7.1034375 0.753125 7.4334375 -4.196875 7.7734375 -9.296875 C23.2834375 -9.296875 38.7934375 -9.296875 54.7734375 -9.296875 C54.7734375 51.423125 54.7734375 112.143125 54.7734375 174.703125 C39.2634375 174.703125 23.7534375 174.703125 7.7734375 174.703125 C7.4434375 169.753125 7.1134375 164.803125 6.7734375 159.703125 C5.0409375 161.064375 3.3084375 162.425625 1.5234375 163.828125 C-17.72805403 178.45482383 -40.14009463 181.91786976 -63.77880859 179.43505859 C-86.87534958 175.9256551 -107.62568604 161.84314098 -121.734375 143.5390625 C-130.11674839 131.8605694 -135.96327324 119.70739149 -139.2265625 105.703125 C-139.45214844 104.78789062 -139.67773438 103.87265625 -139.91015625 102.9296875 C-145.09274242 77.98178996 -140.320745 50.97932029 -127.0078125 29.375 C-124.28734952 25.29430553 -121.37462309 21.46159386 -118.2265625 17.703125 C-117.64519531 16.97609375 -117.06382812 16.2490625 -116.46484375 15.5 C-88.6178285 -17.8930665 -35.46712874 -25.24778656 0 0 Z M-76.3515625 46.5 C-87.91062863 60.0819027 -91.38282457 72.78906202 -90.43359375 90.37695312 C-89.30741647 103.03051102 -81.63400918 113.08364658 -72.75390625 121.66015625 C-61.10384876 131.07743611 -47.65678799 132.94129799 -33.2265625 131.703125 C-20.469365 129.42299242 -9.69660658 121.09907257 -2.2265625 110.703125 C5.5814765 97.69552327 7.89270048 84.56383585 4.7109375 69.578125 C0.75309828 55.75330055 -8.26570434 44.86875643 -20.76171875 37.91796875 C-39.11790825 28.87078185 -61.45259011 32.24322469 -76.3515625 46.5 Z " fill="#FFFFFF" transform="translate(901.2265625,249.296875)"/>
<path d="M0 0 C0.7321875 0.63292969 1.464375 1.26585937 2.21875 1.91796875 C19.47197688 17.97305487 29.18678812 41.53019114 30.16168213 64.87097168 C30.19548838 68.85274734 30.17614789 72.83116737 30.125 76.8125 C30.11493373 78.19856112 30.10581442 79.58462946 30.09765625 80.97070312 C30.07435806 84.31399273 30.04164862 87.65689731 30 91 C14.10875031 91.04692651 -1.78248037 91.08208927 -17.67378235 91.10362434 C-25.05402964 91.11389362 -32.43423364 91.1278697 -39.81445312 91.15087891 C-46.25446829 91.17094711 -52.69445207 91.18374794 -59.13449764 91.18817699 C-62.5377129 91.19076188 -65.94083844 91.19674422 -69.34402466 91.21146011 C-96.5994284 91.316211 -96.5994284 91.316211 -110 89 C-107.56614696 96.45896852 -104.73951463 102.72014312 -100 109 C-99.40832031 109.81597656 -98.81664062 110.63195312 -98.20703125 111.47265625 C-89.80112472 121.09853506 -76.79091228 126.28453737 -64.28710938 127.19824219 C-43.26000959 128.18717517 -25.09694246 124.47733223 -9 110 C-7.84297648 108.86546722 -6.69603564 107.72050044 -5.5625 106.5625 C-4.716875 105.716875 -3.87125 104.87125 -3 104 C-2.34 104 -1.68 104 -1 104 C0.57487957 110.17263254 2.14048862 116.3475629 3.69970703 122.52416992 C4.23110746 124.62464439 4.76461954 126.7245858 5.30029297 128.82397461 C6.0703561 131.84350785 6.83277859 134.86488322 7.59375 137.88671875 C7.83436157 138.82335861 8.07497314 139.75999847 8.32287598 140.72502136 C8.54310425 141.60555679 8.76333252 142.48609222 8.99023438 143.39331055 C9.18564819 144.16386276 9.38106201 144.93441498 9.58239746 145.72831726 C10.04215414 148.22931096 10.18225221 150.46295118 10 153 C-2.27015289 166.10741038 -27.29170812 172.38128478 -44.57006836 173.16113281 C-47.96290254 173.19892619 -51.35526752 173.23113068 -54.74829102 173.24023438 C-56.90096246 173.24983701 -59.05263408 173.28087185 -61.20507812 173.3125 C-89.28905518 173.52897785 -115.19774307 163.13892077 -135.6875 143.75 C-155.98049113 122.50463022 -162.51437229 96.00321376 -162.2109375 67.3203125 C-161.61058752 42.33537698 -151.01544485 20.44882781 -133.69921875 2.6328125 C-97.25598376 -31.84212993 -37.63242511 -33.03651112 0 0 Z M-101 34 C-108.17248658 43.13034224 -108.17248658 43.13034224 -111 54 C-110.37061523 53.93941406 -109.74123047 53.87882812 -109.09277344 53.81640625 C-79.5692146 51.07395348 -49.49385873 50.67004821 -20 54 C-25.04801953 39.77646261 -32.24274385 29.90877459 -45.9375 23.26171875 C-52.51850271 20.55041279 -58.27450863 19.63838631 -65.3125 19.6875 C-66.15482178 19.69313965 -66.99714355 19.6987793 -67.86499023 19.70458984 C-80.18888092 19.94523034 -92.54976601 24.5865269 -101 34 Z " fill="#FFFFFF" transform="translate(1722,257)"/>
<path d="M0 0 C0.67417969 0.50144531 1.34835937 1.00289062 2.04296875 1.51953125 C19.77153297 15.59690375 30.68897102 39.17383842 33.26957703 61.31268311 C33.9796756 68.4556865 34.11961383 75.51312458 34.0625 82.6875 C34.05798828 83.78255859 34.05347656 84.87761719 34.04882812 86.00585938 C34.03719156 88.67063309 34.02084564 91.33528517 34 94 C18.09147957 94.04690825 2.18297808 94.08208046 -13.72559452 94.10362434 C-21.11371752 94.11389743 -28.50179732 94.127881 -35.88989258 94.15087891 C-42.33612409 94.17093523 -48.78232429 94.18374519 -55.22858614 94.18817699 C-58.63568182 94.19076385 -62.04268798 94.19675923 -65.44975471 94.21146011 C-100.30963922 94.34518039 -100.30963922 94.34518039 -107 91 C-102.32847078 104.73472645 -95.89117573 116.47763141 -82.8515625 123.7578125 C-66.41083249 131.69075216 -46.82321229 132.84953164 -29.35546875 127.32421875 C-19.36065819 123.37981737 -11.13457055 117.9458921 -3 111 C-1.33721367 109.66183066 0.32846368 108.32722338 2 107 C4.04348843 112.88811395 5.80873979 118.78060356 7.296875 124.83203125 C7.49476624 125.63106369 7.69265747 126.43009613 7.89654541 127.25334167 C8.30855786 128.92417089 8.71851291 130.59550871 9.12646484 132.26733398 C9.7532675 134.82583741 10.39403525 137.380599 11.03515625 139.93554688 C11.435755 141.56749767 11.83552451 143.1996523 12.234375 144.83203125 C12.42698914 145.59248245 12.61960327 146.35293365 12.8180542 147.13642883 C13.68966787 150.77157447 14.33324406 153.46517956 13 157 C10.82567623 158.65863811 8.79029822 160.01858775 6.4375 161.375 C5.76493164 161.7671167 5.09236328 162.1592334 4.39941406 162.56323242 C-2.77970947 166.62125114 -10.11997709 169.60478329 -18 172 C-18.66821777 172.21027832 -19.33643555 172.42055664 -20.02490234 172.63720703 C-48.22461127 181.12332387 -82.22470503 177.67611624 -108.23828125 164.33984375 C-131.43354518 151.40118954 -147.32299903 131.5453346 -155.25 106.3125 C-162.177711 80.05096792 -160.13921564 51.00965702 -147 27 C-133.85307491 4.76614397 -112.33549818 -11.60221676 -87.30859375 -18.03125 C-56.4024442 -25.28195957 -25.20898159 -19.29004108 0 0 Z M-100.171875 40.453125 C-105.68863649 48.12444691 -105.68863649 48.12444691 -108 57 C-107.33508545 56.93941406 -106.6701709 56.87882812 -105.98510742 56.81640625 C-76.49590785 54.21625639 -46.44840796 53.53673124 -17 57 C-20.47623399 45.16074322 -26.73577865 34.96319165 -37.41796875 28.35546875 C-59.06403145 16.99210452 -84.45234951 21.92197706 -100.171875 40.453125 Z " fill="#FFFFFF" transform="translate(1507,254)"/>
<path d="M0 0 C63.69 0 127.38 0 193 0 C193 16.5 193 33 193 50 C170.56 50 148.12 50 125 50 C125 124.58 125 199.16 125 276 C105.86 276 86.72 276 67 276 C67 201.42 67 126.84 67 50 C44.89 50 22.78 50 0 50 C0 33.5 0 17 0 0 Z " fill="#FFFFFF" transform="translate(581,148)"/>
<path d="M0 0 C1.57428768 6.03032875 3.1406381 12.06264251 4.69970703 18.09692383 C5.2310636 20.1489198 5.76457502 22.20035904 6.30029297 24.2512207 C7.07047247 27.20119394 7.83285019 30.15309026 8.59375 33.10546875 C8.83436157 34.02023483 9.07497314 34.93500092 9.32287598 35.87748718 C9.65321838 37.1682592 9.65321838 37.1682592 9.99023438 38.48510742 C10.18564819 39.23789474 10.38106201 39.99068207 10.58239746 40.76628113 C11.04120728 43.22041406 11.07088689 45.50889817 11 48 C9.73542969 47.76023437 9.73542969 47.76023437 8.4453125 47.515625 C-7.46153979 45.13500765 -21.95621862 48.10720886 -35.1875 57.1875 C-51.54216735 73.54216735 -52.28755409 93.56520838 -52.4140625 115.296875 C-52.43280325 117.34239457 -52.45237876 119.38790664 -52.4727478 121.43341064 C-52.52376811 126.77945509 -52.56355371 132.12552451 -52.60089111 137.47167969 C-52.64821209 143.90637423 -52.70967927 150.34094775 -52.76873779 156.77554321 C-52.85658241 166.51697914 -52.92660965 176.25839621 -53 186 C-70.82 186 -88.64 186 -107 186 C-107 125.28 -107 64.56 -107 2 C-90.83 2 -74.66 2 -58 2 C-57.67 10.91 -57.34 19.82 -57 29 C-55.02 26.36 -53.04 23.72 -51 21 C-37.74419207 5.45962397 -19.88028682 -0.28951874 0 0 Z " fill="#FFFFFF" transform="translate(1330,238)"/>
<path d="M0 0 C0.66 0.66 1.32 1.32 2 2 C2.46664062 2.45890625 2.93328125 2.9178125 3.4140625 3.390625 C4.50303622 4.49569193 5.55928892 5.6336771 6.5859375 6.796875 C17.44230378 18.64880325 32.21084196 25.06206353 48 27 C50.67781914 27.100383 53.31967725 27.15618363 55.99615479 27.14282227 C57.15911619 27.13909151 57.15911619 27.13909151 58.34557176 27.13528538 C68.6023355 27.04519055 78.82787981 26.36047791 89.06152344 25.71484375 C91.32039526 25.57643807 93.57929718 25.438523 95.83822632 25.30105591 C101.91618622 24.9298579 107.99371619 24.55201076 114.07119274 24.17299271 C120.45022101 23.77643981 126.82965105 23.38646091 133.20904541 22.99584961 C143.90454933 22.34014475 154.59982704 21.68089197 165.29492188 21.01855469 C176.28635774 20.33788034 187.27787116 19.65849011 198.26953125 18.98144531 C199.28786256 18.91871841 199.28786256 18.91871841 200.32676622 18.85472429 C211.6477566 18.15745351 222.9688402 17.46170282 234.28995538 16.76646137 C241.87691996 16.30032782 249.46373727 15.83188187 257.05043936 15.36149597 C261.75966137 15.06980026 266.46897161 14.77954786 271.17830276 14.48962021 C273.36246595 14.35481942 275.54658979 14.21937939 277.73067093 14.08325577 C280.70964918 13.8976591 283.68875758 13.71430788 286.66790771 13.53149414 C287.53307062 13.47702086 288.39823352 13.42254759 289.28961349 13.36642361 C293.53458496 13.1083065 297.74446592 12.94150727 302 13 C294.04998965 18.3000069 283.47417484 18.54398481 274.1875 19.0703125 C272.25197266 19.19384346 272.25197266 19.19384346 270.27734375 19.31987 C266.63044776 19.55212395 262.98281324 19.77006033 259.3348999 19.98566055 C255.33346279 20.22445367 251.3328111 20.47582151 247.33203125 20.7253418 C239.66061852 21.20176858 231.98863801 21.6683153 224.31640625 22.13134766 C213.57361235 22.7802004 202.83160185 23.44120441 192.08984375 24.10693359 C174.59909545 25.19086862 157.1080341 26.26961805 139.6167078 27.34418654 C134.53739164 27.65629758 129.4581278 27.96924488 124.37889957 28.28278357 C116.20623509 28.78723575 108.0334109 29.28893589 99.86026096 29.78546578 C96.05278313 30.01682819 92.24539294 30.24944052 88.4382019 30.48547935 C84.89604362 30.70503191 81.35367356 30.92078586 77.81111145 31.13372016 C75.92522387 31.24800002 74.03957019 31.36612039 72.15393066 31.48442268 C49.54017901 32.82920523 30.03140397 30.98462296 12 16 C7.29645516 11.78657244 3.1430788 7.5003879 0 2 C0 1.34 0 0.68 0 0 Z " fill="#000183" transform="translate(85,338)"/>
<path d="M0 0 C0.99 0.495 0.99 0.495 2 1 C1.40832031 1.75023438 0.81664062 2.50046875 0.20703125 3.2734375 C-4.66021958 9.57783743 -8.7709637 15.66570649 -12 23 C-12.66 23 -13.32 23 -14 23 C-14.33064453 24.14082031 -14.33064453 24.14082031 -14.66796875 25.3046875 C-16.51550314 30.43010549 -18.92190489 35.23369152 -21.3125 40.125 C-25.74562319 49.27697239 -30.10501023 58.458265 -34.375 67.6875 C-34.91237793 68.84862305 -35.44975586 70.00974609 -36.00341797 71.20605469 C-37.10771908 73.59254847 -38.21188453 75.97910503 -39.31591797 78.36572266 C-41.88569599 83.91559824 -44.47346796 89.45708189 -47.0612793 94.99856567 C-47.9363409 96.87251777 -48.81098921 98.74666228 -49.68554688 100.62084961 C-52.38096511 106.39628345 -55.0790384 112.1704538 -57.78335571 117.94172668 C-65.82896212 135.08403653 -65.82896212 135.08403653 -73.6875 152.3125 C-74.14165283 153.31458496 -74.14165283 153.31458496 -74.60498047 154.33691406 C-76.43238262 158.45253232 -77.92865942 162.61409195 -79.29541016 166.90478516 C-80.34479512 170.02530552 -81.65747162 172.99529363 -83 176 C-83.33 176 -83.66 176 -84 176 C-83.40569094 159.65650082 -74.52549127 144.4924198 -67.4921875 130.15625 C-64.08547796 123.21042134 -60.80583461 116.21084679 -57.5625 109.1875 C-56.47266012 106.83072738 -55.38281634 104.47395656 -54.29296875 102.1171875 C-53.74946777 100.94124023 -53.2059668 99.76529297 -52.64599609 98.55371094 C-49.62345288 92.02803027 -46.57450676 85.51465347 -43.52737427 79.00042725 C-39.69386706 70.8033355 -35.88736859 62.59423798 -32.1015625 54.375 C-30.82205098 51.60078126 -29.54229859 48.82667374 -28.26251221 46.05258179 C-27.43099546 44.24790704 -26.60084155 42.44260364 -25.77215576 40.6366272 C-13.39894935 13.67282656 -13.39894935 13.67282656 -5.625 5.8125 C-5.07972656 5.24208984 -4.53445312 4.67167969 -3.97265625 4.08398438 C-2.65887472 2.71258084 -1.33100388 1.35469489 0 0 Z " fill="#000056" transform="translate(158,101)"/>
<path d="M0 0 C0.66 0.66 1.32 1.32 2 2 C2.68642578 2.68449219 2.68642578 2.68449219 3.38671875 3.3828125 C4.5402876 4.53917449 5.68809309 5.70129744 6.83203125 6.8671875 C8.86855744 8.93183141 10.93388621 10.9650141 13 13 C13.57105469 13.60199219 14.14210938 14.20398438 14.73046875 14.82421875 C27.36502377 27.23564697 44.62863164 29.18172021 61.39935493 29.09061813 C70.48785396 28.98206831 79.54768917 28.4043721 88.61694336 27.83837891 C90.69726609 27.71304694 92.77761993 27.58823042 94.85800171 27.46388245 C100.44257596 27.12848521 106.02666179 26.78554214 111.61066508 26.44078493 C117.48595221 26.07902763 123.36160403 25.72328079 129.23719788 25.36654663 C139.09110107 24.7672819 148.94468326 24.16294098 158.7980957 23.55566406 C170.16196898 22.85537218 181.52634956 22.16382174 192.89103025 21.47676718 C202.68970591 20.88415655 212.488086 20.28683153 222.28623682 19.68560541 C228.12070544 19.32759784 233.95525846 18.97117187 239.79008293 18.61900711 C245.27105388 18.28793535 250.75162837 17.95091565 256.2319603 17.60943413 C258.23402271 17.48563453 260.23621061 17.36384409 262.23853111 17.24429131 C271.69101647 16.67873809 281.02492415 16.06273402 290.36557865 14.44859886 C294.22855388 13.79079737 298.10249177 13.39635677 302 13 C294.04998965 18.3000069 283.47417484 18.54398481 274.1875 19.0703125 C272.25197266 19.19384346 272.25197266 19.19384346 270.27734375 19.31987 C266.63044776 19.55212395 262.98281324 19.77006033 259.3348999 19.98566055 C255.33346279 20.22445367 251.3328111 20.47582151 247.33203125 20.7253418 C239.66061852 21.20176858 231.98863801 21.6683153 224.31640625 22.13134766 C213.57361235 22.7802004 202.83160185 23.44120441 192.08984375 24.10693359 C174.59909545 25.19086862 157.1080341 26.26961805 139.6167078 27.34418654 C134.53739164 27.65629758 129.4581278 27.96924488 124.37889957 28.28278357 C116.20623509 28.78723575 108.0334109 29.28893589 99.86026096 29.78546578 C96.05278313 30.01682819 92.24539294 30.24944052 88.4382019 30.48547935 C84.89604362 30.70503191 81.35367356 30.92078586 77.81111145 31.13372016 C75.92522387 31.24800002 74.03957019 31.36612039 72.15393066 31.48442268 C49.54017901 32.82920523 30.03140397 30.98462296 12 16 C7.29645516 11.78657244 3.1430788 7.5003879 0 2 C0 1.34 0 0.68 0 0 Z " fill="#000016" transform="translate(85,338)"/>
<path d="M0 0 C1.28240186 3.84720559 0.48691728 4.65155076 -1.2890625 8.21484375 C-1.81129395 9.27783691 -2.33352539 10.34083008 -2.87158203 11.43603516 C-3.45020996 12.59151855 -4.02883789 13.74700195 -4.625 14.9375 C-5.84820702 17.42099606 -7.0641548 19.90803553 -8.28125 22.39453125 C-8.59442169 23.03183167 -8.90759338 23.66913208 -9.23025513 24.32574463 C-12.28514703 30.55069203 -15.21827557 36.82958066 -18.125 43.125 C-18.64465332 44.2483374 -19.16430664 45.3716748 -19.69970703 46.52905273 C-20.83072238 48.97512834 -21.96112095 51.42148116 -23.09082031 53.86816406 C-25.65473631 59.41931122 -28.2265044 64.96682052 -30.79884338 70.5140686 C-32.85514063 74.94876984 -34.90913317 79.38450512 -36.95776367 83.82275391 C-40.57643139 91.65683695 -44.21018974 99.48002924 -47.96484375 107.25 C-57.41364299 126.86459942 -63.5399383 143.87538565 -60 166 C-60.66 166 -61.32 166 -62 166 C-60.62573629 178.01422382 -60.62573629 178.01422382 -58.3671875 189.88671875 C-57.9497582 192.28915757 -57.94032982 194.56630923 -58 197 C-60.5 195.1875 -60.5 195.1875 -63 193 C-63 192.01 -63 191.02 -63 190 C-63.66 190 -64.32 190 -65 190 C-68.31187379 175.92453637 -68.9310167 163.28870641 -66 149 C-66.66 148.67 -67.32 148.34 -68 148 C-67.3503125 146.824375 -67.3503125 146.824375 -66.6875 145.625 C-65.40023356 142.85976097 -64.64662197 140.771928 -63.91796875 137.890625 C-61.72309177 130.44335795 -58.1936263 123.5781961 -54.8248291 116.60766602 C-53.18709724 113.21889904 -51.56518755 109.82263634 -49.94213867 106.42681885 C-49.12216118 104.71170332 -48.30136186 102.99698045 -47.47973633 101.28265381 C-44.01340933 94.04735336 -40.61556341 86.78270232 -37.25 79.5 C-36.21360582 77.26038698 -35.17714762 75.02080358 -34.140625 72.78125 C-33.62951172 71.67652344 -33.11839844 70.57179688 -32.59179688 69.43359375 C-29.45026135 62.65712817 -26.28539172 55.89153737 -23.12371826 49.12445068 C-19.86183336 42.14213168 -16.60610276 35.15707076 -13.3671875 28.1640625 C-13.0718512 27.52668152 -12.77651489 26.88930054 -12.472229 26.23260498 C-11.06718263 23.20004898 -9.66338714 20.16693245 -8.26171875 17.1328125 C-5.59493837 11.3742122 -2.87660677 5.65686786 0 0 Z " fill="#005298" transform="translate(144,124)"/>
<path d="M0 0 C0.33 0 0.66 0 1 0 C1.46781587 8.48999166 0.76914577 16.90908026 -2 25 C-2.99 25.33 -3.98 25.66 -5 26 C-5.185625 27.0828125 -5.185625 27.0828125 -5.375 28.1875 C-6.54721325 33.46245964 -8.14150397 36.25498915 -12 40 C-12.515625 40.886875 -13.03125 41.77375 -13.5625 42.6875 C-17.65894652 49.09434236 -24.88953276 54.50077637 -32 57 C-33.7015625 57.7734375 -33.7015625 57.7734375 -35.4375 58.5625 C-38.7005188 59.87915671 -41.52388851 60.57608396 -45 61 C-43.99138318 58.39075213 -43.33501908 57.20251153 -40.90625 55.734375 C-39.71515625 55.24710937 -39.71515625 55.24710937 -38.5 54.75 C-37.7059375 54.41484375 -36.911875 54.0796875 -36.09375 53.734375 C-34 53 -34 53 -32 53 C-31.67 52.01 -31.34 51.02 -31 50 C-28.53570205 47.88339841 -25.9500389 45.97851826 -23.34765625 44.03515625 C-21.05815903 42.05041739 -20.19931164 40.70998302 -19 38 C-18.319375 37.525625 -17.63875 37.05125 -16.9375 36.5625 C-14.40555689 34.5206104 -14.52459968 33.14759808 -14 30 C-13 28.33333333 -12 26.66666667 -11 25 C-10.86207031 24.22011719 -10.72414063 23.44023437 -10.58203125 22.63671875 C-9.92925841 19.67952634 -8.83773268 17.84007158 -7.1875 15.3125 C-4.12924838 10.41192812 -1.9609332 5.42140355 0 0 Z " fill="#005EB4" transform="translate(426,277)"/>
<path d="M0 0 C0.33 0 0.66 0 1 0 C1.32283215 5.38053578 0.53583348 8.30401207 -2 13 C-2.43736177 14.39027098 -2.85508158 15.78680498 -3.2578125 17.1875 C-4.89219703 22.17709953 -7.3768672 25.98802462 -10.5625 30.125 C-11.35116455 31.16430664 -11.35116455 31.16430664 -12.15576172 32.22460938 C-16.33930277 37.55071945 -20.85525418 41.96434868 -27 45 C-27.66 45 -28.32 45 -29 45 C-27.50440592 40.51321775 -24.05501298 38.80367156 -20.34765625 36.03515625 C-18.05815903 34.05041739 -17.19931164 32.70998302 -16 30 C-15.319375 29.525625 -14.63875 29.05125 -13.9375 28.5625 C-11.40555689 26.5206104 -11.52459968 25.14759808 -11 22 C-10 20.33333333 -9 18.66666667 -8 17 C-7.8659375 16.23042969 -7.731875 15.46085937 -7.59375 14.66796875 C-6.90525681 11.57427895 -5.68396885 9.48822936 -4 6.8125 C-1.89110597 3.46706412 -1.89110597 3.46706412 0 0 Z " fill="#004D97" transform="translate(423,285)"/>
<path d="M0 0 C0 5.78905489 -4.11386645 11.01827294 -8.00390625 15.10546875 C-15.30115311 21.59960305 -24.11344266 26.98599412 -34 28 C-32.52808796 24.24355781 -32.52808796 24.24355781 -30.1875 23.1640625 C-29.465625 22.98617188 -28.74375 22.80828125 -28 22.625 C-18.11716994 19.70797113 -9.58728413 13.64969266 -3.6875 5.25 C-2.99011719 4.26515625 -2.29273438 3.2803125 -1.57421875 2.265625 C-1.05472656 1.51796875 -0.53523438 0.7703125 0 0 Z " fill="#0059AA" transform="translate(415,310)"/>
<path d="M0 0 C0.33 0 0.66 0 1 0 C1.66 4.62 2.32 9.24 3 14 C2.34 14 1.68 14 1 14 C2.37426371 26.01422382 2.37426371 26.01422382 4.6328125 37.88671875 C5.0502418 40.28915757 5.05967018 42.56630923 5 45 C1.41956599 41.25681899 0.87547022 36.91855089 0 32 C-0.18046875 31.1440625 -0.3609375 30.288125 -0.546875 29.40625 C-1.19187005 24.55766651 -1.1442593 19.76044132 -1.125 14.875 C-1.12886719 13.88628906 -1.13273437 12.89757812 -1.13671875 11.87890625 C-1.13542969 10.92628906 -1.13414063 9.97367187 -1.1328125 8.9921875 C-1.13168457 8.12964355 -1.13055664 7.26709961 -1.12939453 6.37841797 C-1.00641915 4.11799126 -0.63145826 2.16777676 0 0 Z " fill="#004B93" transform="translate(81,276)"/>
<path d="M0 0 C0.33 0 0.66 0 1 0 C1.12554889 7.53293339 1.12554889 7.53293339 0.50439453 9.84375 C-0.44644079 13.90850196 -0.19031334 18.09399508 -0.1875 22.25 C-0.18814453 23.22404785 -0.18878906 24.1980957 -0.18945312 25.20166016 C-0.12889285 33.59613948 0.6704635 41.71413859 2 50 C0 49 0 49 -0.8515625 47.015625 C-5.16255633 31.60055615 -3.65701711 15.389947 0 0 Z " fill="#005CB1" transform="translate(81,268)"/>
<path d="M0 0 C0.66 0.33 1.32 0.66 2 1 C1.38511719 1.80824219 0.77023438 2.61648437 0.13671875 3.44921875 C-0.67981713 4.52854778 -1.49621611 5.60798038 -2.3125 6.6875 C-2.71662109 7.21794922 -3.12074219 7.74839844 -3.53710938 8.29492188 C-5.4025573 10.76701954 -7.12045346 13.20903047 -8.66796875 15.89453125 C-9.10753906 16.58933594 -9.54710937 17.28414062 -10 18 C-10.66 18 -11.32 18 -12 18 C-12 18.66 -12 19.32 -12 20 C-12.42925781 20.40863281 -12.85851562 20.81726563 -13.30078125 21.23828125 C-15.59350634 23.61533645 -16.75241041 26.22164818 -18.1875 29.1875 C-18.71730469 30.27417969 -19.24710938 31.36085937 -19.79296875 32.48046875 C-20.19128906 33.31191406 -20.58960938 34.14335937 -21 35 C-22.16449687 31.50650938 -21.89917435 31.15081111 -20.33203125 28.0078125 C-19.50911364 26.3715853 -18.66806056 24.74439772 -17.8125 23.125 C-17.36922363 22.2796167 -16.92594727 21.4342334 -16.46923828 20.56323242 C-12.08985862 12.56923497 -6.55191204 6.27047252 0 0 Z " fill="#000046" transform="translate(158,101)"/>
<path d="M0 0 C0.33 0 0.66 0 1 0 C1.47273445 8.57925475 0.529188 16.76273633 -2 25 C-2.66 25.33 -3.32 25.66 -4 26 C-4.12527964 19.48545861 -4.12527964 19.48545861 -3.5 17.0625 C-2.83862466 14.73565527 -2.83862466 14.73565527 -3.125 11.1875 C-3.20717588 6.80752538 -1.94508958 3.89017915 0 0 Z " fill="#0065C0" transform="translate(426,277)"/>
<path d="M0 0 C0.66 0.33 1.32 0.66 2 1 C1.34 2.32 0.68 3.64 0 5 C-0.66 5 -1.32 5 -2 5 C-2.226875 5.78375 -2.45375 6.5675 -2.6875 7.375 C-4.40660933 12.12301625 -6.68084721 16.52102552 -9 21 C-9.99 21 -10.98 21 -12 21 C-11.67 19.68 -11.34 18.36 -11 17 C-10.34 17 -9.68 17 -9 17 C-8.6596875 15.7934375 -8.6596875 15.7934375 -8.3125 14.5625 C-6.66368412 10.08714261 -4.39455588 6.11278682 -2 2 C-1.34 2 -0.68 2 0 2 C0 1.34 0 0.68 0 0 Z " fill="#000675" transform="translate(146,119)"/>
<path d="M0 0 C0.33 0 0.66 0 1 0 C0.6822243 7.30884104 -2.58449364 13.54594391 -7.73046875 18.75 C-9.10262757 19.89726818 -10.54456674 20.96040481 -12 22 C-10.62159784 19.16661778 -9.13581614 16.44311194 -7.5 13.75 C-7.0771875 13.04359375 -6.654375 12.3371875 -6.21875 11.609375 C-5.61546875 10.81273437 -5.61546875 10.81273437 -5 10 C-4.34 10 -3.68 10 -3 10 C-2.87625 9.278125 -2.7525 8.55625 -2.625 7.8125 C-2.0095069 5.04278106 -1.11555626 2.6029646 0 0 Z " fill="#0068C4" transform="translate(421,303)"/>
<path d="M0 0 C0.66 0.66 1.32 1.32 2 2 C2.45117188 2.44988281 2.90234375 2.89976562 3.3671875 3.36328125 C4.58579841 4.5848075 5.79837743 5.8123568 7.0078125 7.04296875 C7.70648438 7.75066406 8.40515625 8.45835937 9.125 9.1875 C9.78757812 9.86167969 10.45015625 10.53585937 11.1328125 11.23046875 C13.07943317 13.17553358 13.07943317 13.17553358 16 15 C16 15.66 16 16.32 16 17 C10.02216031 16.07930594 6.16161594 10.75606033 2.59375 6.20703125 C0 2.45535714 0 2.45535714 0 0 Z " fill="#000038" transform="translate(85,338)"/>
<path d="M0 0 C0.33 0 0.66 0 1 0 C1.32283215 5.38053578 0.53583348 8.30401207 -2 13 C-2.80635476 15.36767893 -3.54296135 17.74659844 -4.25390625 20.14453125 C-5 22 -5 22 -7 23 C-6.80664062 22.29875 -6.61328125 21.5975 -6.4140625 20.875 C-5.19927988 16.44886136 -3.99305262 12.0295987 -2.9375 7.5625 C-2.19387435 4.73672253 -1.45979128 2.50249933 0 0 Z " fill="#0053A1" transform="translate(423,285)"/>
<path d="M0 0 C0.66 0.33 1.32 0.66 2 1 C1.67 1.99 1.34 2.98 1 4 C-4.28 4 -9.56 4 -15 4 C-14.67 3.01 -14.34 2.02 -14 1 C-13.07316406 1.01160156 -12.14632812 1.02320313 -11.19140625 1.03515625 C-9.39509766 1.04869141 -9.39509766 1.04869141 -7.5625 1.0625 C-5.77005859 1.07990234 -5.77005859 1.07990234 -3.94140625 1.09765625 C-1.11126659 1.33901792 -1.11126659 1.33901792 0 0 Z " fill="#0058AA" transform="translate(148,351)"/>
<path d="M0 0 C0.33 0 0.66 0 1 0 C1.12117188 0.59167969 1.24234375 1.18335938 1.3671875 1.79296875 C2.09751766 5.23675637 2.7890165 8.48426255 4.125 11.75 C5.11786058 14.30307007 5.1551809 16.28433419 5 19 C0.70866535 14.51360468 0.08452547 8.40897597 -0.125 2.4375 C-0.08375 1.633125 -0.0425 0.82875 0 0 Z " fill="#0052A0" transform="translate(81,302)"/>
<path d="M0 0 C-0.33 0.99 -0.66 1.98 -1 3 C-4.3 3.33 -7.6 3.66 -11 4 C-8.54493529 0.31740294 -4.36534139 -2.1826707 0 0 Z " fill="#0059AA" transform="translate(347,340)"/>
<path d="M0 0 C0.66 0.33 1.32 0.66 2 1 C-1.06093224 4.93548431 -3.49115974 7.68116787 -8 10 C-6.34908222 5.70761377 -3.26245434 3.1206085 0 0 Z " fill="#000037" transform="translate(158,101)"/>
<path d="M0 0 C0.33 0 0.66 0 1 0 C0.25 6.75 0.25 6.75 -2 9 C-2.25 3.375 -2.25 3.375 0 0 Z " fill="#000E7E" transform="translate(79,261)"/>
</svg>
