<?xml version="1.0" encoding="UTF-8"?>
<svg version="1.1" xmlns="http://www.w3.org/2000/svg" width="2000" height="573">
<path d="M0 0 C6.33781476 3.1755075 12.73407146 6.22455753 19.13137817 9.27815247 C28.33512376 13.67940399 37.45214426 18.23113484 46.53762817 22.87190247 C49.68767369 24.4735242 52.83822184 26.07415387 55.98883057 27.67466736 C58.07558749 28.73943521 60.1593486 29.81009585 62.23999023 30.88676453 C65.17460755 32.40517129 68.11859436 33.90381918 71.06497192 35.39924622 C72.38972534 36.09497742 72.38972534 36.09497742 73.74124146 36.80476379 C78.52387678 39.2102014 78.52387678 39.2102014 83.76321411 39.82063293 C87.63264808 38.52673857 91.43012499 37.12988392 95.21340942 35.60237122 C96.8936232 34.93994529 98.57396618 34.27784701 100.25442505 33.61604309 C102.86426568 32.58061587 105.47259251 31.54170842 108.07839966 30.49617004 C140.20270275 17.64214466 172.37367058 13.92867474 204.95266724 27.80256653 C235.69514645 41.34645597 260.59126643 60.51026306 274.00637817 92.21565247 C278.16856162 103.23387697 281.24836979 115.03468035 281.69387817 126.84065247 C281.77122192 128.34885559 281.77122192 128.34885559 281.85012817 129.88752747 C282.52224915 154.19590271 274.16078724 174.55958595 263.60305786 195.96174622 C261.51612052 200.19503742 259.45195335 204.43929098 257.38919067 208.68440247 C254.19694813 215.25228619 250.99880333 221.81724771 247.79544067 228.37971497 C244.75204757 234.61491784 241.71494995 240.85311731 238.68600464 247.09535217 C236.9106011 250.75365927 235.13290797 254.41085156 233.35501099 258.06794739 C232.51380416 259.79970289 231.67359379 261.53194287 230.83450317 263.26472473 C226.6361101 271.93328185 222.38274831 280.56808294 217.91653442 289.10237122 C217.56477142 289.78149567 217.21300842 290.46062012 216.85058594 291.1603241 C204.17159625 315.11874512 181.26218123 332.66661978 155.56887817 340.65315247 C149.63499201 342.29106335 143.71375776 343.40932931 137.61502075 344.21296692 C136.68925893 344.33669583 135.7634971 344.46042475 134.80968189 344.58790302 C119.20454917 346.61177243 103.53788821 348.15478147 87.88738608 349.77955794 C85.05446971 350.07383525 82.22165251 350.36904987 79.38886452 350.66456032 C69.46870929 351.6992909 59.54815215 352.73007157 49.62722778 353.75740051 C40.43546706 354.70934082 31.24470251 355.67051343 22.05433816 356.63583297 C14.10699136 357.47013991 6.1589553 358.29765283 -1.78963059 359.12007028 C-6.51254916 359.60886619 -11.23515037 360.10032775 -15.95705605 360.59882164 C-20.39455611 361.06707985 -24.83286514 361.52678234 -29.27189445 361.98030663 C-30.88570852 362.14658878 -32.49922881 362.31575593 -34.11238861 362.48826981 C-47.83528763 363.95282089 -61.98947965 365.08860709 -75.68112183 362.77815247 C-76.84647461 362.58515564 -76.84647461 362.58515564 -78.03536987 362.38825989 C-105.43621213 357.36050667 -129.90256281 341.06288276 -146.11862183 318.52815247 C-150.3241358 312.11360498 -153.74661456 305.42157439 -157.02926636 298.5091095 C-158.56719124 295.29505233 -160.13784441 292.09739644 -161.70846558 288.89924622 C-178.0594363 255.53724761 -190.41035435 223.28704245 -179.30612183 185.84065247 C-178.95549683 184.8287384 -178.60487183 183.81682434 -178.24362183 182.77424622 C-177.2211336 179.57471015 -176.70843001 176.46925251 -176.18112183 173.15315247 C-172.4377223 153.32582449 -161.09936319 134.66344284 -152.49958801 116.57702637 C-149.16548574 109.55848457 -145.88242502 102.51719183 -142.61862183 95.46565247 C-141.57308128 93.20782498 -140.52750839 90.95001246 -139.48190308 88.69221497 C-138.96450562 87.57492004 -138.44710815 86.45762512 -137.91403198 85.30647278 C-136.23048012 81.67760818 -134.54123861 78.05145159 -132.84909058 74.42658997 C-132.55770706 73.80239166 -132.26632355 73.17819336 -131.96611023 72.53507996 C-130.49638744 69.38752934 -129.02548688 66.24053301 -127.55343628 63.09407043 C-124.59387907 56.76473162 -121.65291579 50.42764029 -118.74362183 44.07502747 C-117.87547553 42.18505829 -117.00688871 40.29529222 -116.13815308 38.40559387 C-115.3357984 36.65538711 -114.53959022 34.90236659 -113.74362183 33.14924622 C-104.15869259 12.30701728 -91.52506021 -2.11374257 -70.13815308 -11.16325378 C-43.88186605 -20.3982237 -23.35802897 -11.70757535 0 0 Z M101.69387817 49.84065247 C104.72147076 52.26574338 107.79554702 53.99208158 111.2817688 55.68464661 C112.40393799 56.2327449 113.52610718 56.7808432 114.68228149 57.34555054 C115.2792836 57.63506655 115.87628571 57.92458256 116.49137878 58.22287178 C118.37968329 59.1401659 120.26426132 60.06471776 122.14785767 60.99163818 C127.50228703 63.62635976 132.8583821 66.25737773 138.22805786 68.86091614 C141.5207329 70.45806669 144.804927 72.07164393 148.08454895 73.6954174 C149.32208652 74.30443404 150.56249536 74.90765883 151.80601501 75.50436592 C169.88921135 84.19013313 181.5724154 96.41081363 189.69387817 114.84065247 C191.1219895 118.98667456 192.23769052 123.179435 193.30715942 127.43049622 C193.60704269 128.57804886 193.90692596 129.7256015 194.21589661 130.90792847 C195.15863583 134.52821421 196.08262754 138.15298093 197.00637817 141.77815247 C197.64385055 144.23484424 198.28251251 146.69122766 198.9223938 149.14729309 C200.08547768 153.62914089 201.2453 158.11174418 202.39041138 162.59822083 C202.61880203 163.49246262 202.84719269 164.38670441 203.08250427 165.30804443 C207.51090224 183.6526225 205.12121045 202.42602717 195.66262817 218.77815247 C187.2140812 231.92033665 176.39699842 241.32152869 161.69387817 246.84065247 C160.51438599 247.28344543 160.51438599 247.28344543 159.31106567 247.73518372 C153.33297701 249.73774477 147.34849038 250.49556531 141.08840942 251.11799622 C138.57488879 251.44242875 136.34702191 251.9509505 133.92459106 252.7212677 C120.86632204 256.83229283 107.40094061 257.12568357 93.82278442 257.89497757 C89.84099484 258.12389873 85.86028862 258.37041365 81.87942505 258.61482239 C75.30674162 259.01641596 68.73366066 259.41063257 62.16018486 259.79903507 C46.3169021 260.73568185 30.47634731 261.71466433 14.63583368 262.69676632 C1.19505295 263.52995372 -12.24609973 264.35712155 -25.68726236 265.18412179 C-29.92225881 265.44471997 -34.15723721 265.70560535 -38.39217758 265.96711349 C-47.40994478 266.52391667 -56.4278402 267.07845918 -65.44616181 267.62621856 C-69.25352329 267.85752402 -73.06079635 268.09008948 -76.86786842 268.32611465 C-80.41004019 268.54566735 -83.95242342 268.76142698 -87.49499857 268.97436869 C-89.38089094 269.08865192 -91.26654955 269.2067731 -93.15219402 269.3250761 C-115.77635999 270.67047289 -135.25832551 268.81890232 -153.30612183 253.84065247 C-155.74651679 251.59655984 -158.04716135 249.26535189 -160.30612183 246.84065247 C-161.30265565 245.83719827 -162.30164762 244.83615815 -163.30612183 243.84065247 C-162.73262446 249.43421579 -160.66923571 253.88680697 -158.29830933 258.90315247 C-157.69274704 260.20566956 -157.69274704 260.20566956 -157.07495117 261.53450012 C-155.78383761 264.30646445 -154.48242226 267.07345833 -153.18112183 269.84065247 C-152.32893006 271.66978651 -151.47736163 273.49921109 -150.62643433 275.32893372 C-148.21080254 280.51123967 -145.76925706 285.6807619 -143.30612183 290.84065247 C-142.96421814 291.55707916 -142.62231445 292.27350586 -142.27005005 293.01164246 C-131.41317461 315.62632364 -114.00768313 333.80568635 -90.08395386 342.66340637 C-63.73434532 351.46169739 -36.82153974 347.09655448 -9.7933073 344.3047235 C-4.91467055 343.80275317 -0.03491036 343.31192633 4.84469604 342.81948853 C13.02857271 341.99191353 21.21157741 341.15612737 29.39407349 340.3150177 C38.80951748 339.34724421 48.22610828 338.39135148 57.64343286 337.44206446 C66.76633337 336.52228011 75.8884815 335.59523776 85.01027679 334.66456032 C88.86446087 334.27137822 92.71886285 333.88044605 96.57346344 333.49136925 C101.12151068 333.03187793 105.66885084 332.56589765 110.21575165 332.09520149 C111.86934187 331.9249832 113.52314487 331.75681519 115.17718506 331.59102631 C146.15997318 328.48031557 173.20430466 321.47337113 194.44216919 296.68537903 C201.69324821 287.52463169 206.87575377 276.90415361 212.00637817 266.46565247 C212.59354614 265.28616028 213.18071411 264.10666809 213.78567505 262.89143372 C218.06731674 254.2716225 222.20978917 245.58637413 226.35211182 236.89898682 C229.69811425 229.89344809 233.09197326 222.91280049 236.51809692 215.94612122 C237.00083572 214.96397644 237.48357452 213.98183167 237.98094177 212.96992493 C239.94101982 208.98406743 241.90236433 204.99884582 243.86795044 201.01570129 C248.79112036 191.03411398 253.69118493 181.04833288 258.24465942 170.89143372 C258.72040657 169.83801033 258.72040657 169.83801033 259.20576477 168.76330566 C268.75152969 147.14816027 268.34117365 122.6822969 260.56106567 100.62971497 C248.49553131 69.54698074 224.29546246 54.00552506 195.08352661 40.87385559 C162.538435 26.80245922 132.59095169 37.41765721 101.69387817 49.84065247 Z " fill="#0071D3" transform="translate(250.30612182617188,99.15934753417969)"/>
<path d="M0 0 C17.82 0 35.64 0 54 0 C54 97.35 54 194.7 54 295 C38.49 295 22.98 295 7 295 C6.67 290.05 6.34 285.1 6 280 C4.68 281.155 3.36 282.31 2 283.5 C-16.84136676 298.4458943 -38.47032305 301.86121508 -62 300 C-85.08703315 297.05578172 -107.05833585 284.09322764 -121.3125 265.6875 C-129.23111938 255.03214744 -135.24716187 243.79376634 -139 231 C-139.3196875 229.92234375 -139.639375 228.8446875 -139.96875 227.734375 C-146.55825786 201.0102598 -141.88286539 172.92005616 -127.85644531 149.51513672 C-114.75882646 128.62021521 -94.75856183 113.54625283 -70.79516602 107.43798828 C-47.2475251 102.13793699 -24.65503352 106.33419867 -4 118 C-3.01 118.66 -2.02 119.32 -1 120 C-0.67 80.4 -0.34 40.8 0 0 Z M-78.0390625 167.77734375 C-87.22479018 178.18905501 -92.41601822 190.9067008 -92.1484375 204.84765625 C-91.25442773 217.81079795 -86.16340603 229.75880614 -77 239 C-63.61161472 250.43055641 -51.18782951 253.32185671 -34 252 C-22.06413789 249.66074013 -10.91738293 241.89448444 -4 232 C3.73408627 218.94681883 7.17491074 206.11320067 3.875 191 C-0.03972155 176.97224777 -8.72228934 165.81314698 -21.2421875 158.40234375 C-40.37377422 148.673959 -62.72131883 153.00056129 -78.0390625 167.77734375 Z " fill="#003C79" transform="translate(1129,129)"/>
<path d="M0 0 C17.82 0 35.64 0 54 0 C54.33 39.6 54.66 79.2 55 120 C59.62 117.36 64.24 114.72 69 112 C88.89176423 103.78383651 112.61555921 102.76376 133 110 C134.60488281 110.56074219 134.60488281 110.56074219 136.2421875 111.1328125 C159.96943036 120.24938673 177.64190501 139.31392341 188.39453125 161.93359375 C198.407464 185.68027716 199.57759245 214.26718202 190.38671875 238.453125 C180.01300355 263.8409666 161.68228635 283.83335438 136.43359375 294.71484375 C115.33541151 302.61166054 90.63033343 303.21651969 69.7578125 294.234375 C61.60668402 290.48923651 54.77635755 285.92931285 48 280 C47.67 284.95 47.34 289.9 47 295 C31.49 295 15.98 295 0 295 C0 197.65 0 100.3 0 0 Z M67.16015625 164.03125 C56.65736597 173.60341329 49.7249622 184.92785004 48.78515625 199.28125 C48.40496506 213.27228577 52.01018003 225.47253383 61.1875 236.1875 C70.57828202 246.05866856 80.88550003 251.92455035 94.65258789 252.47045898 C106.97875405 252.62557766 117.27580377 249.83239805 127 242 C127.75023437 241.39800781 128.50046875 240.79601562 129.2734375 240.17578125 C138.29624698 232.0922062 144.59453488 219.9690081 145.2734375 207.84765625 C145.78496839 191.00241497 141.58661196 178.32977658 130 166 C126.84987115 163.25447485 123.63708391 161.04806667 120 159 C119.30648438 158.59265625 118.61296875 158.1853125 117.8984375 157.765625 C101.56278491 149.32247872 81.0179985 152.49526845 67.16015625 164.03125 Z " fill="#003C79" transform="translate(1781,129)"/>
<path d="M0 0 C2.31111493 1.83587158 4.55216602 3.75951246 6.7734375 5.703125 C7.1034375 0.753125 7.4334375 -4.196875 7.7734375 -9.296875 C23.2834375 -9.296875 38.7934375 -9.296875 54.7734375 -9.296875 C54.7734375 51.423125 54.7734375 112.143125 54.7734375 174.703125 C39.2634375 174.703125 23.7534375 174.703125 7.7734375 174.703125 C7.4434375 169.753125 7.1134375 164.803125 6.7734375 159.703125 C5.0409375 161.064375 3.3084375 162.425625 1.5234375 163.828125 C-17.72805403 178.45482383 -40.14009463 181.91786976 -63.77880859 179.43505859 C-86.87534958 175.9256551 -107.62568604 161.84314098 -121.734375 143.5390625 C-130.11674839 131.8605694 -135.96327324 119.70739149 -139.2265625 105.703125 C-139.45214844 104.78789062 -139.67773438 103.87265625 -139.91015625 102.9296875 C-145.09274242 77.98178996 -140.320745 50.97932029 -127.0078125 29.375 C-124.28734952 25.29430553 -121.37462309 21.46159386 -118.2265625 17.703125 C-117.64519531 16.97609375 -117.06382812 16.2490625 -116.46484375 15.5 C-88.6178285 -17.8930665 -35.46712874 -25.24778656 0 0 Z M-76.3515625 46.5 C-87.91062863 60.0819027 -91.38282457 72.78906202 -90.43359375 90.37695312 C-89.30741647 103.03051102 -81.63400918 113.08364658 -72.75390625 121.66015625 C-61.10384876 131.07743611 -47.65678799 132.94129799 -33.2265625 131.703125 C-20.469365 129.42299242 -9.69660658 121.09907257 -2.2265625 110.703125 C5.5814765 97.69552327 7.89270048 84.56383585 4.7109375 69.578125 C0.75309828 55.75330055 -8.26570434 44.86875643 -20.76171875 37.91796875 C-39.11790825 28.87078185 -61.45259011 32.24322469 -76.3515625 46.5 Z " fill="#003C79" transform="translate(901.2265625,249.296875)"/>
<path d="M0 0 C0.7321875 0.63292969 1.464375 1.26585937 2.21875 1.91796875 C19.47197688 17.97305487 29.18678812 41.53019114 30.16168213 64.87097168 C30.19548838 68.85274734 30.17614789 72.83116737 30.125 76.8125 C30.11493373 78.19856112 30.10581442 79.58462946 30.09765625 80.97070312 C30.07435806 84.31399273 30.04164862 87.65689731 30 91 C14.10875031 91.04692651 -1.78248037 91.08208927 -17.67378235 91.10362434 C-25.05402964 91.11389362 -32.43423364 91.1278697 -39.81445312 91.15087891 C-46.25446829 91.17094711 -52.69445207 91.18374794 -59.13449764 91.18817699 C-62.5377129 91.19076188 -65.94083844 91.19674422 -69.34402466 91.21146011 C-96.5994284 91.316211 -96.5994284 91.316211 -110 89 C-107.56614696 96.45896852 -104.73951463 102.72014312 -100 109 C-99.40832031 109.81597656 -98.81664062 110.63195312 -98.20703125 111.47265625 C-89.80112472 121.09853506 -76.79091228 126.28453737 -64.28710938 127.19824219 C-43.26000959 128.18717517 -25.09694246 124.47733223 -9 110 C-7.84297648 108.86546722 -6.69603564 107.72050044 -5.5625 106.5625 C-4.716875 105.716875 -3.87125 104.87125 -3 104 C-2.34 104 -1.68 104 -1 104 C0.57487957 110.17263254 2.14048862 116.3475629 3.69970703 122.52416992 C4.23110746 124.62464439 4.76461954 126.7245858 5.30029297 128.82397461 C6.0703561 131.84350785 6.83277859 134.86488322 7.59375 137.88671875 C7.83436157 138.82335861 8.07497314 139.75999847 8.32287598 140.72502136 C8.54310425 141.60555679 8.76333252 142.48609222 8.99023438 143.39331055 C9.18564819 144.16386276 9.38106201 144.93441498 9.58239746 145.72831726 C10.04215414 148.22931096 10.18225221 150.46295118 10 153 C-2.27015289 166.10741038 -27.29170812 172.38128478 -44.57006836 173.16113281 C-47.96290254 173.19892619 -51.35526752 173.23113068 -54.74829102 173.24023438 C-56.90096246 173.24983701 -59.05263408 173.28087185 -61.20507812 173.3125 C-89.28905518 173.52897785 -115.19774307 163.13892077 -135.6875 143.75 C-155.98049113 122.50463022 -162.51437229 96.00321376 -162.2109375 67.3203125 C-161.61058752 42.33537698 -151.01544485 20.44882781 -133.69921875 2.6328125 C-97.25598376 -31.84212993 -37.63242511 -33.03651112 0 0 Z M-101 34 C-108.17248658 43.13034224 -108.17248658 43.13034224 -111 54 C-110.37061523 53.93941406 -109.74123047 53.87882812 -109.09277344 53.81640625 C-79.5692146 51.07395348 -49.49385873 50.67004821 -20 54 C-25.04801953 39.77646261 -32.24274385 29.90877459 -45.9375 23.26171875 C-52.51850271 20.55041279 -58.27450863 19.63838631 -65.3125 19.6875 C-66.15482178 19.69313965 -66.99714355 19.6987793 -67.86499023 19.70458984 C-80.18888092 19.94523034 -92.54976601 24.5865269 -101 34 Z " fill="#003C79" transform="translate(1722,257)"/>
<path d="M0 0 C0.67417969 0.50144531 1.34835937 1.00289062 2.04296875 1.51953125 C19.77153297 15.59690375 30.68897102 39.17383842 33.26957703 61.31268311 C33.9796756 68.4556865 34.11961383 75.51312458 34.0625 82.6875 C34.05798828 83.78255859 34.05347656 84.87761719 34.04882812 86.00585938 C34.03719156 88.67063309 34.02084564 91.33528517 34 94 C18.09147957 94.04690825 2.18297808 94.08208046 -13.72559452 94.10362434 C-21.11371752 94.11389743 -28.50179732 94.127881 -35.88989258 94.15087891 C-42.33612409 94.17093523 -48.78232429 94.18374519 -55.22858614 94.18817699 C-58.63568182 94.19076385 -62.04268798 94.19675923 -65.44975471 94.21146011 C-100.30963922 94.34518039 -100.30963922 94.34518039 -107 91 C-102.32847078 104.73472645 -95.89117573 116.47763141 -82.8515625 123.7578125 C-66.41083249 131.69075216 -46.82321229 132.84953164 -29.35546875 127.32421875 C-19.36065819 123.37981737 -11.13457055 117.9458921 -3 111 C-1.33721367 109.66183066 0.32846368 108.32722338 2 107 C4.04348843 112.88811395 5.80873979 118.78060356 7.296875 124.83203125 C7.49476624 125.63106369 7.69265747 126.43009613 7.89654541 127.25334167 C8.30855786 128.92417089 8.71851291 130.59550871 9.12646484 132.26733398 C9.7532675 134.82583741 10.39403525 137.380599 11.03515625 139.93554688 C11.435755 141.56749767 11.83552451 143.1996523 12.234375 144.83203125 C12.42698914 145.59248245 12.61960327 146.35293365 12.8180542 147.13642883 C13.68966787 150.77157447 14.33324406 153.46517956 13 157 C10.82567623 158.65863811 8.79029822 160.01858775 6.4375 161.375 C5.76493164 161.7671167 5.09236328 162.1592334 4.39941406 162.56323242 C-2.77970947 166.62125114 -10.11997709 169.60478329 -18 172 C-18.66821777 172.21027832 -19.33643555 172.42055664 -20.02490234 172.63720703 C-48.22461127 181.12332387 -82.22470503 177.67611624 -108.23828125 164.33984375 C-131.43354518 151.40118954 -147.32299903 131.5453346 -155.25 106.3125 C-162.177711 80.05096792 -160.13921564 51.00965702 -147 27 C-133.85307491 4.76614397 -112.33549818 -11.60221676 -87.30859375 -18.03125 C-56.4024442 -25.28195957 -25.20898159 -19.29004108 0 0 Z M-100.171875 40.453125 C-105.68863649 48.12444691 -105.68863649 48.12444691 -108 57 C-107.33508545 56.93941406 -106.6701709 56.87882812 -105.98510742 56.81640625 C-76.49590785 54.21625639 -46.44840796 53.53673124 -17 57 C-20.47623399 45.16074322 -26.73577865 34.96319165 -37.41796875 28.35546875 C-59.06403145 16.99210452 -84.45234951 21.92197706 -100.171875 40.453125 Z " fill="#003C79" transform="translate(1507,254)"/>
<path d="M0 0 C63.69 0 127.38 0 193 0 C193 16.5 193 33 193 50 C170.56 50 148.12 50 125 50 C125 124.58 125 199.16 125 276 C105.86 276 86.72 276 67 276 C67 201.42 67 126.84 67 50 C44.89 50 22.78 50 0 50 C0 33.5 0 17 0 0 Z " fill="#003C79" transform="translate(581,148)"/>
<path d="M0 0 C1.57428768 6.03032875 3.1406381 12.06264251 4.69970703 18.09692383 C5.2310636 20.1489198 5.76457502 22.20035904 6.30029297 24.2512207 C7.07047247 27.20119394 7.83285019 30.15309026 8.59375 33.10546875 C8.83436157 34.02023483 9.07497314 34.93500092 9.32287598 35.87748718 C9.65321838 37.1682592 9.65321838 37.1682592 9.99023438 38.48510742 C10.18564819 39.23789474 10.38106201 39.99068207 10.58239746 40.76628113 C11.04120728 43.22041406 11.07088689 45.50889817 11 48 C9.73542969 47.76023437 9.73542969 47.76023437 8.4453125 47.515625 C-7.46153979 45.13500765 -21.95621862 48.10720886 -35.1875 57.1875 C-51.54216735 73.54216735 -52.28755409 93.56520838 -52.4140625 115.296875 C-52.43280325 117.34239457 -52.45237876 119.38790664 -52.4727478 121.43341064 C-52.52376811 126.77945509 -52.56355371 132.12552451 -52.60089111 137.47167969 C-52.64821209 143.90637423 -52.70967927 150.34094775 -52.76873779 156.77554321 C-52.85658241 166.51697914 -52.92660965 176.25839621 -53 186 C-70.82 186 -88.64 186 -107 186 C-107 125.28 -107 64.56 -107 2 C-90.83 2 -74.66 2 -58 2 C-57.67 10.91 -57.34 19.82 -57 29 C-55.02 26.36 -53.04 23.72 -51 21 C-37.74419207 5.45962397 -19.88028682 -0.28951874 0 0 Z " fill="#003C79" transform="translate(1330,238)"/>
<path d="M0 0 C0.66 0.66 1.32 1.32 2 2 C2.4640625 2.45761719 2.928125 2.91523438 3.40625 3.38671875 C4.51579075 4.50985682 5.59748886 5.6609016 6.65625 6.83203125 C17.97545383 18.99058282 34.2790536 26.53735038 50.92743969 27.14283752 C52.42712795 27.15025048 53.92686894 27.14976676 55.42655945 27.14282227 C56.66628747 27.13909151 56.66628747 27.13909151 57.93106049 27.13528538 C68.36550071 27.04884005 78.7641693 26.37282747 89.17504883 25.71484375 C91.43406654 25.57641181 93.69311604 25.4384977 95.95219421 25.30105591 C102.02598058 24.93013016 108.09931168 24.55218645 114.17258668 24.17299271 C120.54892597 23.77621549 126.92568894 23.38636989 133.30241394 22.99584961 C143.9919541 22.34034205 154.68125403 21.6810759 165.37036133 21.01855469 C176.3549523 20.33773477 187.33962871 19.65833087 198.32446289 18.98144531 C199.00308771 18.93962737 199.68171253 18.89780944 200.38090173 18.85472429 C211.69740425 18.15746277 223.01400043 17.46172759 234.33062571 16.76646137 C241.91341244 16.30037429 249.49604889 15.83192991 257.07856715 15.36149597 C261.78451133 15.06980606 266.4905435 14.77955437 271.19659615 14.48962021 C273.3791477 14.35482024 275.56165983 14.21938024 277.74412918 14.08325577 C280.72086433 13.89765937 283.69772975 13.71430869 286.67463684 13.53149414 C287.53911763 13.47702086 288.40359841 13.42254759 289.29427558 13.36642361 C293.53770235 13.10820188 297.74599808 12.9415385 302 13 C294.04998965 18.3000069 283.47417484 18.54398481 274.1875 19.0703125 C272.25197266 19.19384346 272.25197266 19.19384346 270.27734375 19.31987 C266.63044776 19.55212395 262.98281324 19.77006033 259.3348999 19.98566055 C255.33346279 20.22445367 251.3328111 20.47582151 247.33203125 20.7253418 C239.66061852 21.20176858 231.98863801 21.6683153 224.31640625 22.13134766 C213.57361235 22.7802004 202.83160185 23.44120441 192.08984375 24.10693359 C174.59909545 25.19086862 157.1080341 26.26961805 139.6167078 27.34418654 C134.53739164 27.65629758 129.4581278 27.96924488 124.37889957 28.28278357 C116.20623509 28.78723575 108.0334109 29.28893589 99.86026096 29.78546578 C96.05278313 30.01682819 92.24539294 30.24944052 88.4382019 30.48547935 C84.89604362 30.70503191 81.35367356 30.92078586 77.81111145 31.13372016 C75.92522387 31.24800002 74.03957019 31.36612039 72.15393066 31.48442268 C49.54017901 32.82920523 30.03140397 30.98462296 12 16 C7.29645516 11.78657244 3.1430788 7.5003879 0 2 C0 1.34 0 0.68 0 0 Z " fill="#000F78" transform="translate(85,338)"/>
<path d="M0 0 C0.99 0.495 0.99 0.495 2 1 C1.23429687 1.86431641 1.23429687 1.86431641 0.453125 2.74609375 C-8.20194749 13.31940039 -13.33246033 25.6622021 -19 38 C-20.05320628 40.26501226 -21.10789555 42.52933553 -22.1640625 44.79296875 C-24.3328492 49.4458575 -26.49387078 54.10222847 -28.6484375 58.76171875 C-31.78914956 65.55122636 -34.94996263 72.33120265 -38.1164856 79.10870361 C-40.46259285 84.13090149 -42.8060118 89.15435521 -45.14971924 94.17767334 C-45.97973191 95.9565613 -46.80993197 97.73536183 -47.64013672 99.51416016 C-54.41345172 114.03487893 -61.09986738 128.5916351 -67.7121582 143.18615723 C-72.69426193 154.17917999 -77.76737125 165.1235061 -83 176 C-83.33 176 -83.66 176 -84 176 C-83.40569094 159.65650082 -74.52549127 144.4924198 -67.4921875 130.15625 C-64.08547796 123.21042134 -60.80583461 116.21084679 -57.5625 109.1875 C-56.47266012 106.83072738 -55.38281634 104.47395656 -54.29296875 102.1171875 C-53.74946777 100.94124023 -53.2059668 99.76529297 -52.64599609 98.55371094 C-49.62345288 92.02803027 -46.57450676 85.51465347 -43.52737427 79.00042725 C-39.69386706 70.8033355 -35.88736859 62.59423798 -32.1015625 54.375 C-30.82205098 51.60078126 -29.54229859 48.82667374 -28.26251221 46.05258179 C-27.43099546 44.24790704 -26.60084155 42.44260364 -25.77215576 40.6366272 C-13.39894935 13.67282656 -13.39894935 13.67282656 -5.625 5.8125 C-5.07972656 5.24208984 -4.53445312 4.67167969 -3.97265625 4.08398438 C-2.65887472 2.71258084 -1.33100388 1.35469489 0 0 Z " fill="#001E62" transform="translate(158,101)"/>
<path d="M0 0 C0.66 0.66 1.32 1.32 2 2 C2.68642578 2.68449219 2.68642578 2.68449219 3.38671875 3.3828125 C4.5402876 4.53917449 5.68809309 5.70129744 6.83203125 6.8671875 C8.86855744 8.93183141 10.93388621 10.9650141 13 13 C13.57105469 13.60199219 14.14210938 14.20398438 14.73046875 14.82421875 C27.36502377 27.23564697 44.62863164 29.18172021 61.39935493 29.09061813 C70.48785396 28.98206831 79.54768917 28.4043721 88.61694336 27.83837891 C90.69726609 27.71304694 92.77761993 27.58823042 94.85800171 27.46388245 C100.44257596 27.12848521 106.02666179 26.78554214 111.61066508 26.44078493 C117.48595221 26.07902763 123.36160403 25.72328079 129.23719788 25.36654663 C139.09110107 24.7672819 148.94468326 24.16294098 158.7980957 23.55566406 C170.16196898 22.85537218 181.52634956 22.16382174 192.89103025 21.47676718 C202.68970591 20.88415655 212.488086 20.28683153 222.28623682 19.68560541 C228.12070544 19.32759784 233.95525846 18.97117187 239.79008293 18.61900711 C245.27105388 18.28793535 250.75162837 17.95091565 256.2319603 17.60943413 C258.23402271 17.48563453 260.23621061 17.36384409 262.23853111 17.24429131 C271.69101647 16.67873809 281.02492415 16.06273402 290.36557865 14.44859886 C294.22855388 13.79079737 298.10249177 13.39635677 302 13 C294.04998965 18.3000069 283.47417484 18.54398481 274.1875 19.0703125 C272.25197266 19.19384346 272.25197266 19.19384346 270.27734375 19.31987 C266.63044776 19.55212395 262.98281324 19.77006033 259.3348999 19.98566055 C255.33346279 20.22445367 251.3328111 20.47582151 247.33203125 20.7253418 C239.66061852 21.20176858 231.98863801 21.6683153 224.31640625 22.13134766 C213.57361235 22.7802004 202.83160185 23.44120441 192.08984375 24.10693359 C174.59909545 25.19086862 157.1080341 26.26961805 139.6167078 27.34418654 C134.53739164 27.65629758 129.4581278 27.96924488 124.37889957 28.28278357 C116.20623509 28.78723575 108.0334109 29.28893589 99.86026096 29.78546578 C96.05278313 30.01682819 92.24539294 30.24944052 88.4382019 30.48547935 C84.89604362 30.70503191 81.35367356 30.92078586 77.81111145 31.13372016 C75.92522387 31.24800002 74.03957019 31.36612039 72.15393066 31.48442268 C49.54017901 32.82920523 30.03140397 30.98462296 12 16 C7.29645516 11.78657244 3.1430788 7.5003879 0 2 C0 1.34 0 0.68 0 0 Z " fill="#00091C" transform="translate(85,338)"/>
<path d="M0 0 C0.66 0 1.32 0 2 0 C1.99214478 0.84594727 1.99214478 0.84594727 1.98413086 1.70898438 C1.96312733 4.30597789 1.95026638 6.90295344 1.9375 9.5 C1.92912109 10.386875 1.92074219 11.27375 1.91210938 12.1875 C1.89236404 17.55823086 2.21164107 22.68633663 3 28 C2.34 28 1.68 28 1 28 C2.37426371 40.01422382 2.37426371 40.01422382 4.6328125 51.88671875 C5.0502418 54.28915757 5.05967018 56.56630923 5 59 C2.49962266 56.82575883 1.56371414 55.26954202 1 52 C0.34 52 -0.32 52 -1 52 C-1 51.01 -1 50.02 -1 49 C-1.66 49 -2.32 49 -3 49 C-5.49194052 36.85178998 -6.11908855 25.08646812 -3 13 C-3.99 13.33 -4.98 13.66 -6 14 C-4.50829734 9.0276578 -2.39542583 4.58154261 0 0 Z " fill="#0068C6" transform="translate(81,262)"/>
<path d="M0 0 C0.33 0 0.66 0 1 0 C0.76621706 8.32267255 0.39353148 14.88136672 -4 22 C-4.98000738 23.89539888 -5.95912091 25.79126011 -6.9375 27.6875 C-9.11524732 31.87920863 -11.60194256 34.72854679 -15 38 C-17.51716417 40.8436089 -20.01383562 43.70347581 -22.5 46.57421875 C-26.65757071 50.60836158 -31.50292783 51.4909998 -37 53 C-35.75 50.5625 -35.75 50.5625 -34 48 C-32.67405895 47.63837971 -31.34061543 47.30271961 -30 47 C-29.70609375 46.38769531 -29.4121875 45.77539062 -29.109375 45.14453125 C-27.82101431 42.65400302 -26.62554572 41.79506001 -24.3125 40.25 C-17.48456405 35.32147169 -12.93439697 29.87653924 -10 22 C-9.34 21.01 -8.68 20.02 -8 19 C-8.27070313 18.05253906 -8.27070313 18.05253906 -8.546875 17.0859375 C-9 15 -9 15 -7.890625 12.8515625 C-7.34921875 12.11679687 -6.8078125 11.38203125 -6.25 10.625 C-3.79361931 7.1689295 -1.77427763 3.84426821 0 0 Z " fill="#0055A4" transform="translate(424,283)"/>
<path d="M0 0 C0.33 0 0.66 0 1 0 C1.35451507 11.46265382 0.13076835 20.69837917 -5 31 C-5.309375 31.62132812 -5.61875 32.24265625 -5.9375 32.8828125 C-6.288125 33.58148438 -6.63875 34.28015625 -7 35 C-7.40863281 35.95132813 -7.81726563 36.90265625 -8.23828125 37.8828125 C-10.37552145 41.66444816 -12.93584162 44.05613008 -16.1875 46.875 C-16.74630859 47.37257813 -17.30511719 47.87015625 -17.88085938 48.3828125 C-19.24660354 49.59680732 -20.62230245 50.79958756 -22 52 C-22.66 51.34 -23.32 50.68 -24 50 C-23.44570313 49.45730469 -22.89140625 48.91460937 -22.3203125 48.35546875 C-21.23363281 47.28232422 -21.23363281 47.28232422 -20.125 46.1875 C-19.40570313 45.47980469 -18.68640625 44.77210938 -17.9453125 44.04296875 C-15.84641063 41.95600806 -15.84641063 41.95600806 -14 39 C-13.34 39 -12.68 39 -12 39 C-11.731875 38.113125 -11.46375 37.22625 -11.1875 36.3125 C-9.8765132 32.65553681 -8.07724099 29.64399838 -5.953125 26.40234375 C-2.71450624 20.87557043 -2.45685991 15.70231535 -2.2734375 9.3671875 C-1.99579518 5.94822065 -1.21400604 3.19526389 0 0 Z " fill="#0064BE" transform="translate(426,277)"/>
<path d="M0 0 C2.38172595 7.14517786 -1.96537527 13.63881197 -5 20 C-5.95385624 22.04043173 -6.90343355 24.08282575 -7.85302734 26.12524414 C-9.23043841 29.08580172 -10.61522264 32.04288177 -12 35 C-12.33 35 -12.66 35 -13 35 C-12.77143779 28.71453909 -11.26718571 23.32310036 -9.1875 17.4375 C-8.8150415 16.37607788 -8.8150415 16.37607788 -8.43505859 15.29321289 C-3.51288068 1.75644034 -3.51288068 1.75644034 0 0 Z " fill="#002A7B" transform="translate(87,242)"/>
<path d="M0 0 C0.33 0 0.66 0 1 0 C1.66 4.95 2.32 9.9 3 15 C2.34 15 1.68 15 1 15 C2.37426371 27.01422382 2.37426371 27.01422382 4.6328125 38.88671875 C5.0502418 41.28915757 5.05967018 43.56630923 5 46 C2.93145252 42.89717879 2.08173224 40.56335326 1 37 C0.73832031 36.26136719 0.47664063 35.52273438 0.20703125 34.76171875 C-3.38662006 23.64333276 -3.25638002 11.1938063 0 0 Z " fill="#004E98" transform="translate(81,275)"/>
<path d="M0 0 C0.66 0.33 1.32 0.66 2 1 C1.40832031 1.75023438 0.81664062 2.50046875 0.20703125 3.2734375 C-4.18291287 8.95959677 -7.99957918 14.33238414 -10.9296875 20.94140625 C-12 23 -12 23 -13.49609375 24.484375 C-15.37048849 26.37337541 -16.15989868 28.24251756 -17.1875 30.6875 C-17.70376953 31.89986328 -17.70376953 31.89986328 -18.23046875 33.13671875 C-18.61138672 34.05904297 -18.61138672 34.05904297 -19 35 C-19.66 34.34 -20.32 33.68 -21 33 C-19.38105631 29.87182616 -17.75382589 26.74803807 -16.125 23.625 C-15.66480469 22.73554687 -15.20460937 21.84609375 -14.73046875 20.9296875 C-14.28574219 20.07890625 -13.84101563 19.228125 -13.3828125 18.3515625 C-12.97434082 17.56604004 -12.56586914 16.78051758 -12.14501953 15.97119141 C-11 14 -11 14 -9 12 C-8.773125 11.278125 -8.54625 10.55625 -8.3125 9.8125 C-6.40066295 5.71570633 -3.28280332 3.0458095 0 0 Z " fill="#00117F" transform="translate(158,101)"/>
<path d="M0 0 C1 3 1 3 0.0625 6.625 C-2.58539872 17.72441109 -1.66948063 29.29576374 2 40 C2.72265625 42.16796875 2.72265625 42.16796875 3 44 C2.34 44.66 1.68 45.32 1 46 C1 44.68 1 43.36 1 42 C0.34 42 -0.32 42 -1 42 C-2.92112519 34.72115516 -3.33489564 27.94899761 -3.3125 20.4375 C-3.32861328 19.35275391 -3.34472656 18.26800781 -3.36132812 17.15039062 C-3.3652409 10.70605102 -2.69614088 5.86890824 0 0 Z " fill="#005EB3" transform="translate(81,272)"/>
<path d="M0 0 C0.33 0 0.66 0 1 0 C0.52104029 6.46595613 -0.83297726 12.28060696 -4 18 C-6.75 20.125 -6.75 20.125 -9 21 C-8.51175808 18.36349363 -7.85902333 16.78311281 -6.375 14.5 C-5.92125 13.675 -5.4675 12.85 -5 12 C-5.1959375 11.37609375 -5.391875 10.7521875 -5.59375 10.109375 C-6 8 -6 8 -4.8203125 5.859375 C-4.26085937 5.16328125 -3.70140625 4.4671875 -3.125 3.75 C-2.57070313 3.04359375 -2.01640625 2.3371875 -1.4453125 1.609375 C-0.96835937 1.07828125 -0.49140625 0.5471875 0 0 Z " fill="#004C94" transform="translate(421,290)"/>
<path d="M0 0 C0.33 0 0.66 0 1 0 C0.77006421 8.1857143 0.53304702 15.03253884 -4 22 C-4.5775 22.99 -5.155 23.98 -5.75 25 C-6.1625 25.66 -6.575 26.32 -7 27 C-7 24.06605629 -6.57138953 22.56859022 -5.5625 19.875 C-4.43079257 16.63779038 -3.77172594 13.7293091 -3.5 10.3125 C-3.17250941 6.34080566 -2.04326714 3.46467037 0 0 Z " fill="#005BAD" transform="translate(424,283)"/>
<path d="M0 0 C5.66666667 5.66666667 11.33333333 11.33333333 17 17 C10.79200297 16.25504036 7.95997304 12.52214041 4 8 C0 2.88579387 0 2.88579387 0 0 Z " fill="#000F3F" transform="translate(85,338)"/>
<path d="M0 0 C1.39852912 4.19558737 -0.22736864 6.04566851 -2 10 C-2.165 10.845625 -2.33 11.69125 -2.5 12.5625 C-3.14067164 15.68577426 -4.50304968 18.20135375 -6 21 C-6.66 21 -7.32 21 -8 21 C-7.32512263 16.18080529 -5.42034091 12.08116134 -3.4375 7.6875 C-2.9434668 6.57665039 -2.9434668 6.57665039 -2.43945312 5.44335938 C-1.63082877 3.62688438 -0.81602884 1.81316069 0 0 Z " fill="#000A41" transform="translate(85,243)"/>
<path d="M0 0 C0.66 0.33 1.32 0.66 2 1 C1.49202991 5.3177458 0.80317221 9.03302114 -1 13 C-1.33 13 -1.66 13 -2 13 C-1.85769192 11.58297487 -1.71099254 10.1663904 -1.5625 8.75 C-1.48128906 7.96109375 -1.40007812 7.1721875 -1.31640625 6.359375 C-1.02365007 4.17635361 -0.57935581 2.1226818 0 0 Z " fill="#000C49" transform="translate(76,264)"/>
<path d="M0 0 C1.23590089 3.70770267 0.49559869 4.51026972 -1 8 C-1.36871088 9.65919896 -1.71281674 11.3247643 -2 13 C-2.99 13 -3.98 13 -5 13 C-4.54554036 11.58208592 -4.08625056 10.16571954 -3.625 8.75 C-3.24214844 7.56664062 -3.24214844 7.56664062 -2.8515625 6.359375 C-2.04826333 4.13372042 -1.10288338 2.09068328 0 0 Z " fill="#000A3D" transform="translate(91,230)"/>
<path d="M0 0 C0.66 0.33 1.32 0.66 2 1 C-1.06093224 4.93548431 -3.49115974 7.68116787 -8 10 C-6.34908222 5.70761377 -3.26245434 3.1206085 0 0 Z " fill="#000535" transform="translate(158,101)"/>
<path d="M0 0 C0 3.99904969 -1.72586967 5.80200422 -4 9 C-4.66 8.34 -5.32 7.68 -6 7 C-4.02 4.69 -2.04 2.38 0 0 Z " fill="#000D82" transform="translate(153,108)"/>
</svg>
